<svg width="390" height="422" viewBox="0 0 390 422" fill="none" xmlns="http://www.w3.org/2000/svg">
<g style="mix-blend-mode:overlay" filter="url(#filter0_d_8_3788)">
<mask id="path-1-outside-1_8_3788" maskUnits="userSpaceOnUse" x="-9" y="81" width="885" height="97" fill="black">
<rect fill="white" x="-9" y="81" width="885" height="97"/>
<path d="M45.8196 109.716C45.4156 105.936 43.7129 102.992 40.7116 100.886C37.7391 98.7789 33.872 97.7255 29.1102 97.7255C25.7626 97.7255 22.8911 98.2305 20.4958 99.2406C18.1005 100.251 16.268 101.621 14.9982 103.353C13.7284 105.085 13.079 107.061 13.0502 109.284C13.0502 111.131 13.4686 112.732 14.3055 114.089C15.1713 115.445 16.3401 116.599 17.8119 117.552C19.2837 118.475 20.9143 119.254 22.7035 119.889C24.4928 120.524 26.2965 121.058 28.1146 121.491L36.426 123.569C39.7737 124.348 42.9914 125.401 46.0794 126.729C49.1961 128.056 51.981 129.73 54.4341 131.75C56.9159 133.77 58.8784 136.209 60.3213 139.066C61.7643 141.923 62.4857 145.271 62.4857 149.109C62.4857 154.304 61.1582 158.878 58.5032 162.832C55.8482 166.756 52.0099 169.83 46.9884 172.052C41.9958 174.245 35.9498 175.342 28.8505 175.342C21.9532 175.342 15.9649 174.274 10.8857 172.139C5.83541 170.003 1.88172 166.886 -0.97533 162.788C-3.80352 158.69 -5.33305 153.698 -5.56392 147.81H10.2364C10.4673 150.898 11.4196 153.467 13.0935 155.516C14.7673 157.565 16.9461 159.094 19.63 160.104C22.3428 161.114 25.373 161.619 28.7206 161.619C32.2126 161.619 35.2716 161.1 37.8978 160.061C40.5529 158.993 42.6307 157.521 44.1314 155.646C45.632 153.741 46.3968 151.519 46.4257 148.979C46.3968 146.67 45.7186 144.766 44.3911 143.265C43.0636 141.736 41.2022 140.466 38.8069 139.456C36.4404 138.417 33.67 137.493 30.4955 136.685L20.4092 134.088C13.1079 132.212 7.33608 129.369 3.0938 125.56C-1.11962 121.722 -3.22634 116.628 -3.22634 110.279C-3.22634 105.056 -1.81224 100.482 1.01595 96.5567C3.87299 92.6319 7.75454 89.5873 12.6606 87.4228C17.5666 85.2295 23.122 84.1329 29.3267 84.1329C35.618 84.1329 41.13 85.2295 45.8629 87.4228C50.6247 89.5873 54.3619 92.603 57.0747 96.4701C59.7874 100.308 61.1871 104.724 61.2737 109.716H45.8196ZM149.658 85.345V174H135.373L93.5994 113.612H92.8635V174H76.8034V85.345H91.1752L132.905 145.776H133.685V85.345H149.658ZM178.542 174H161.4L192.611 85.345H212.437L243.692 174H226.549L202.871 103.526H202.178L178.542 174ZM179.105 139.239H225.857V152.139H179.105V139.239ZM327.087 115.257H310.897C310.436 112.602 309.584 110.25 308.343 108.201C307.102 106.123 305.558 104.363 303.711 102.92C301.864 101.477 299.758 100.395 297.391 99.6735C295.054 98.9232 292.528 98.548 289.816 98.548C284.996 98.548 280.725 99.7601 277.002 102.184C273.279 104.58 270.365 108.1 268.258 112.747C266.151 117.364 265.098 123.006 265.098 129.672C265.098 136.454 266.151 142.168 268.258 146.815C270.394 151.432 273.308 154.924 277.002 157.291C280.725 159.628 284.982 160.797 289.772 160.797C292.427 160.797 294.909 160.451 297.218 159.758C299.556 159.037 301.648 157.983 303.495 156.598C305.371 155.213 306.944 153.51 308.213 151.49C309.512 149.47 310.407 147.161 310.897 144.564L327.087 144.65C326.481 148.864 325.168 152.817 323.148 156.511C321.157 160.205 318.545 163.466 315.313 166.295C312.08 169.094 308.3 171.287 303.971 172.874C299.642 174.433 294.837 175.212 289.556 175.212C281.764 175.212 274.809 173.408 268.691 169.801C262.573 166.194 257.753 160.985 254.233 154.174C250.712 147.363 248.951 139.196 248.951 129.672C248.951 120.12 250.726 111.953 254.276 105.171C257.825 98.3604 262.659 93.1514 268.777 89.544C274.896 85.9366 281.822 84.1329 289.556 84.1329C294.491 84.1329 299.079 84.8255 303.322 86.2107C307.564 87.596 311.345 89.6306 314.663 92.3144C317.982 94.9695 320.709 98.2305 322.845 102.098C325.009 105.936 326.423 110.322 327.087 115.257ZM341.794 174V85.345H357.855V126.08H358.937L393.524 85.345H413.134L378.85 125.127L413.437 174H394.13L367.681 135.993L357.855 147.594V174H341.794ZM502.709 109.716C502.305 105.936 500.602 102.992 497.601 100.886C494.628 98.7789 490.761 97.7255 486 97.7255C482.652 97.7255 479.78 98.2305 477.385 99.2406C474.99 100.251 473.157 101.621 471.888 103.353C470.618 105.085 469.968 107.061 469.94 109.284C469.94 111.131 470.358 112.732 471.195 114.089C472.061 115.445 473.229 116.599 474.701 117.552C476.173 118.475 477.804 119.254 479.593 119.889C481.382 120.524 483.186 121.058 485.004 121.491L493.315 123.569C496.663 124.348 499.881 125.401 502.969 126.729C506.085 128.056 508.87 129.73 511.323 131.75C513.805 133.77 515.768 136.209 517.211 139.066C518.654 141.923 519.375 145.271 519.375 149.109C519.375 154.304 518.048 158.878 515.393 162.832C512.737 166.756 508.899 169.83 503.878 172.052C498.885 174.245 492.839 175.342 485.74 175.342C478.843 175.342 472.854 174.274 467.775 172.139C462.725 170.003 458.771 166.886 455.914 162.788C453.086 158.69 451.556 153.698 451.325 147.81H467.126C467.357 150.898 468.309 153.467 469.983 155.516C471.657 157.565 473.835 159.094 476.519 160.104C479.232 161.114 482.262 161.619 485.61 161.619C489.102 161.619 492.161 161.1 494.787 160.061C497.442 158.993 499.52 157.521 501.021 155.646C502.521 153.741 503.286 151.519 503.315 148.979C503.286 146.67 502.608 144.766 501.28 143.265C499.953 141.736 498.092 140.466 495.696 139.456C493.33 138.417 490.559 137.493 487.385 136.685L477.299 134.088C469.997 132.212 464.225 129.369 459.983 125.56C455.77 121.722 453.663 116.628 453.663 110.279C453.663 105.056 455.077 100.482 457.905 96.5567C460.762 92.6319 464.644 89.5873 469.55 87.4228C474.456 85.2295 480.011 84.1329 486.216 84.1329C492.507 84.1329 498.019 85.2295 502.752 87.4228C507.514 89.5873 511.251 92.603 513.964 96.4701C516.677 100.308 518.076 104.724 518.163 109.716H502.709ZM606.547 85.345V174H592.262L550.489 113.612H549.753V174H533.693V85.345H548.065L589.795 145.776H590.574V85.345H606.547ZM635.432 174H618.29L649.501 85.345H669.327L700.581 174H683.439L659.76 103.526H659.067L635.432 174ZM635.995 139.239H682.746V152.139H635.995V139.239ZM783.977 115.257H767.787C767.325 112.602 766.474 110.25 765.233 108.201C763.992 106.123 762.448 104.363 760.601 102.92C758.754 101.477 756.647 100.395 754.281 99.6735C751.943 98.9232 749.418 98.548 746.705 98.548C741.886 98.548 737.614 99.7601 733.892 102.184C730.169 104.58 727.254 108.1 725.147 112.747C723.041 117.364 721.987 123.006 721.987 129.672C721.987 136.454 723.041 142.168 725.147 146.815C727.283 151.432 730.198 154.924 733.892 157.291C737.614 159.628 741.871 160.797 746.662 160.797C749.317 160.797 751.799 160.451 754.107 159.758C756.445 159.037 758.537 157.983 760.384 156.598C762.26 155.213 763.833 153.51 765.103 151.49C766.401 149.47 767.296 147.161 767.787 144.564L783.977 144.65C783.37 148.864 782.057 152.817 780.037 156.511C778.046 160.205 775.434 163.466 772.202 166.295C768.97 169.094 765.189 171.287 760.86 172.874C756.532 174.433 751.727 175.212 746.445 175.212C738.653 175.212 731.698 173.408 725.58 169.801C719.462 166.194 714.643 160.985 711.122 154.174C707.601 147.363 705.841 139.196 705.841 129.672C705.841 120.12 707.615 111.953 711.165 105.171C714.715 98.3604 719.549 93.1514 725.667 89.544C731.785 85.9366 738.711 84.1329 746.445 84.1329C751.38 84.1329 755.969 84.8255 760.211 86.2107C764.453 87.596 768.234 89.6306 771.553 92.3144C774.872 94.9695 777.599 98.2305 779.734 102.098C781.899 105.936 783.313 110.322 783.977 115.257ZM798.684 174V85.345H814.744V126.08H815.826L850.414 85.345H870.023L835.739 125.127L870.326 174H851.02L824.57 135.993L814.744 147.594V174H798.684Z"/>
</mask>
<path d="M45.8196 109.716L43.2912 109.987L43.534 112.259H45.8196V109.716ZM40.7116 100.886L39.2412 102.96L39.2507 102.967L40.7116 100.886ZM20.4958 99.2406L21.4838 101.584L21.4838 101.584L20.4958 99.2406ZM14.9982 103.353L12.9476 101.849V101.849L14.9982 103.353ZM13.0502 109.284L10.5075 109.251L10.5073 109.267V109.284H13.0502ZM14.3055 114.089L12.1415 115.424L12.1517 115.44L12.1621 115.457L14.3055 114.089ZM17.8119 117.552L16.4305 119.687L16.4454 119.696L16.4604 119.706L17.8119 117.552ZM22.7035 119.889L21.8532 122.286H21.8532L22.7035 119.889ZM28.1146 121.491L28.7313 119.024L28.7175 119.021L28.7036 119.017L28.1146 121.491ZM36.426 123.569L35.8093 126.036L35.8294 126.041L35.8495 126.045L36.426 123.569ZM46.0794 126.729L45.075 129.065L45.0829 129.068L46.0794 126.729ZM54.4341 131.75L52.8175 133.713L52.8232 133.718L52.8288 133.722L54.4341 131.75ZM58.5032 162.832L60.6094 164.256L60.6142 164.249L58.5032 162.832ZM46.9884 172.052L48.0112 174.38L48.0174 174.377L46.9884 172.052ZM10.8857 172.139L9.89538 174.481L9.90016 174.483L10.8857 172.139ZM-0.97533 162.788L-3.06819 164.233L-3.06128 164.243L-0.97533 162.788ZM-5.56392 147.81V145.268H-8.20845L-8.10482 147.91L-5.56392 147.81ZM10.2364 147.81L12.7722 147.621L12.5962 145.268H10.2364V147.81ZM13.0935 155.516L15.0628 153.907L13.0935 155.516ZM19.63 160.104L18.7344 162.484L18.7427 162.487L19.63 160.104ZM37.8978 160.061L38.8332 162.426L38.84 162.423L38.8466 162.42L37.8978 160.061ZM44.1314 155.646L46.117 157.234L46.1229 157.227L46.1288 157.219L44.1314 155.646ZM46.4257 148.979L48.9684 149.008L48.9687 148.978L48.9683 148.947L46.4257 148.979ZM44.3911 143.265L42.4707 144.932L42.4786 144.941L42.4865 144.95L44.3911 143.265ZM38.8069 139.456L37.7847 141.784L37.8017 141.792L37.8188 141.799L38.8069 139.456ZM30.4955 136.685L29.8613 139.148L29.8682 139.15L30.4955 136.685ZM20.4092 134.088L21.0434 131.625L21.042 131.625L20.4092 134.088ZM3.0938 125.56L1.38136 127.44L1.38808 127.446L1.39485 127.452L3.0938 125.56ZM1.01595 96.5567L-1.03992 95.0602L-1.0471 95.0701L1.01595 96.5567ZM12.6606 87.4228L13.687 89.7494L13.6984 89.7443L12.6606 87.4228ZM45.8629 87.4228L44.7937 89.73L44.8022 89.7339L44.8107 89.7378L45.8629 87.4228ZM57.0747 96.4701L54.9929 97.9305L54.9981 97.9378L57.0747 96.4701ZM61.2737 109.716V112.259H63.861L63.8161 109.672L61.2737 109.716ZM48.3481 109.446C47.8694 104.967 45.7991 101.35 42.1725 98.8043L39.2507 102.967C41.6268 104.635 42.9618 106.905 43.2912 109.987L48.3481 109.446ZM42.182 98.8109C38.665 96.3183 34.2381 95.1827 29.1102 95.1827V100.268C33.5058 100.268 36.8132 101.239 39.2412 102.96L42.182 98.8109ZM29.1102 95.1827C25.5167 95.1827 22.2917 95.7236 19.5078 96.8976L21.4838 101.584C23.4905 100.737 26.0085 100.268 29.1102 100.268V95.1827ZM19.5078 96.8976C16.7783 98.0485 14.5413 99.676 12.9476 101.849L17.0487 104.857C17.9946 103.567 19.4227 102.453 21.4838 101.584L19.5078 96.8976ZM12.9476 101.849C11.3531 104.024 10.543 106.519 10.5075 109.251L15.5928 109.317C15.6151 107.604 16.1036 106.146 17.0487 104.857L12.9476 101.849ZM10.5073 109.284C10.5073 111.526 11.0197 113.606 12.1415 115.424L16.4696 112.753C15.9175 111.859 15.593 110.735 15.593 109.284H10.5073ZM12.1621 115.457C13.241 117.147 14.6804 118.554 16.4305 119.687L19.1933 115.417C17.9998 114.645 17.1016 113.743 16.449 112.72L12.1621 115.457ZM16.4604 119.706C18.1037 120.737 19.9045 121.594 21.8532 122.286L23.5539 117.493C21.924 116.914 20.4638 116.214 19.1634 115.398L16.4604 119.706ZM21.8532 122.286C23.7268 122.951 25.6177 123.51 27.5256 123.965L28.7036 119.017C26.9753 118.606 25.2588 118.098 23.5539 117.493L21.8532 122.286ZM27.4979 123.958L35.8093 126.036L37.0427 121.102L28.7313 119.024L27.4979 123.958ZM35.8495 126.045C39.054 126.791 42.1284 127.798 45.075 129.065L47.0837 124.393C43.8545 123.004 40.4933 121.905 37.0025 121.092L35.8495 126.045ZM45.0829 129.068C47.9908 130.307 50.5641 131.858 52.8175 133.713L56.0506 129.787C53.3979 127.603 50.4015 125.806 47.0758 124.389L45.0829 129.068ZM52.8288 133.722C55.0336 135.517 56.7696 137.674 58.0515 140.212L62.5911 137.92C60.9871 134.744 58.7983 132.024 56.0393 129.778L52.8288 133.722ZM58.0515 140.212C59.2826 142.65 59.9429 145.59 59.9429 149.109H65.0286C65.0286 144.951 64.2459 141.196 62.5911 137.92L58.0515 140.212ZM59.9429 149.109C59.9429 153.847 58.7401 157.917 56.3922 161.414L60.6142 164.249C63.5763 159.838 65.0286 154.761 65.0286 149.109H59.9429ZM56.397 161.407C54.0496 164.877 50.6151 167.666 45.9594 169.727L48.0174 174.377C53.4047 171.993 57.6467 168.636 60.6094 164.256L56.397 161.407ZM45.9657 169.724C41.377 171.74 35.6993 172.799 28.8505 172.799V177.885C36.2003 177.885 42.6146 176.751 48.0112 174.38L45.9657 169.724ZM28.8505 172.799C22.2093 172.799 16.5706 171.77 11.8713 169.795L9.90016 174.483C15.3592 176.778 21.6971 177.885 28.8505 177.885V172.799ZM11.8761 169.797C7.22269 167.829 3.66699 165.001 1.11062 161.334L-3.06128 164.243C0.0964394 168.772 4.44812 172.177 9.89538 174.481L11.8761 169.797ZM1.11751 161.344C-1.39011 157.71 -2.80752 153.206 -3.02301 147.711L-8.10482 147.91C-7.85857 154.189 -6.21693 159.67 -3.06817 164.233L1.11751 161.344ZM-5.56392 150.353H10.2364V145.268H-5.56392V150.353ZM7.70064 148C7.96357 151.517 9.06708 154.606 11.1242 157.124L15.0628 153.907C13.7722 152.327 12.971 150.28 12.7722 147.621L7.70064 148ZM11.1242 157.124C13.1052 159.55 15.6672 161.33 18.7344 162.484L20.5257 157.724C18.2251 156.859 16.4294 155.58 15.0628 153.907L11.1242 157.124ZM18.7427 162.487C21.78 163.618 25.1167 164.162 28.7206 164.162V159.077C25.6293 159.077 22.9055 158.611 20.5173 157.721L18.7427 162.487ZM28.7206 164.162C32.4596 164.162 35.848 163.607 38.8332 162.426L36.9624 157.697C34.6953 158.593 31.9655 159.077 28.7206 159.077V164.162ZM38.8466 162.42C41.8301 161.22 44.2948 159.512 46.117 157.234L42.1457 154.057C40.9666 155.531 39.2756 156.766 36.949 157.702L38.8466 162.42ZM46.1288 157.219C47.9939 154.852 48.9335 152.08 48.9684 149.008L43.883 148.95C43.8602 150.957 43.2702 152.63 42.134 154.072L46.1288 157.219ZM48.9683 148.947C48.9331 146.128 48.088 143.606 46.2957 141.58L42.4865 144.95C43.3492 145.925 43.8605 147.213 43.883 149.011L48.9683 148.947ZM46.3115 141.598C44.6673 139.704 42.4503 138.232 39.7949 137.113L37.8188 141.799C39.954 142.699 41.4599 143.767 42.4707 144.932L46.3115 141.598ZM39.8291 137.127C37.3065 136.02 34.3985 135.055 31.1227 134.221L29.8682 139.15C32.9415 139.932 35.5744 140.814 37.7847 141.784L39.8291 137.127ZM31.1296 134.223L21.0434 131.625L19.7751 136.55L29.8613 139.148L31.1296 134.223ZM21.042 131.625C14.0141 129.819 8.64866 127.131 4.79275 123.668L1.39485 127.452C6.0235 131.608 12.2017 134.605 19.7765 136.551L21.042 131.625ZM4.80623 123.68C1.18523 120.382 -0.683479 116.003 -0.683479 110.279H-5.76919C-5.76919 117.253 -3.42448 123.062 1.38136 127.44L4.80623 123.68ZM-0.683479 110.279C-0.683479 105.544 0.588036 101.5 3.07899 98.0433L-1.0471 95.0701C-4.21252 99.463 -5.76919 104.567 -5.76919 110.279H-0.683479ZM3.07179 98.0533C5.63792 94.5281 9.14722 91.7522 13.687 89.7493L11.6342 85.0963C6.36185 87.4224 2.10806 90.7357 -1.0399 95.0602L3.07179 98.0533ZM13.6984 89.7443C18.2312 87.7178 23.4247 86.6758 29.3267 86.6758V81.59C22.8193 81.59 16.902 82.7413 11.6228 85.1014L13.6984 89.7443ZM29.3267 86.6758C35.3235 86.6758 40.4577 87.7206 44.7937 89.73L46.9321 85.1157C41.8023 82.7385 35.9124 81.59 29.3267 81.59V86.6758ZM44.8107 89.7378C49.2047 91.735 52.5682 94.4739 54.9929 97.9305L59.1564 95.0098C56.1556 90.7321 52.0447 87.4395 46.9152 85.1079L44.8107 89.7378ZM54.9981 97.9378C57.3973 101.332 58.6529 105.245 58.7312 109.761L63.8161 109.672C63.7213 104.203 62.1775 99.2843 59.1512 95.0025L54.9981 97.9378ZM61.2737 107.174H45.8196V112.259H61.2737V107.174ZM149.658 85.345H152.201V82.8021H149.658V85.345ZM149.658 174V176.543H152.201V174H149.658ZM135.373 174L133.282 175.447L134.04 176.543H135.373V174ZM93.5994 113.612L95.6907 112.166L94.9323 111.07H93.5994V113.612ZM92.8635 113.612V111.07H90.3206V113.612H92.8635ZM92.8635 174V176.543H95.4064V174H92.8635ZM76.8034 174H74.2606V176.543H76.8034V174ZM76.8034 85.345V82.8021H74.2606V85.345H76.8034ZM91.1752 85.345L93.2677 83.9001L92.5095 82.8021H91.1752V85.345ZM132.905 145.776L130.813 147.221L131.571 148.319H132.905V145.776ZM133.685 145.776V148.319H136.227V145.776H133.685ZM133.685 85.345V82.8021H131.142V85.345H133.685ZM147.115 85.345V174H152.201V85.345H147.115ZM149.658 171.457H135.373V176.543H149.658V171.457ZM137.464 172.553L95.6907 112.166L91.5081 115.059L133.282 175.447L137.464 172.553ZM93.5994 111.07H92.8635V116.155H93.5994V111.07ZM90.3206 113.612V174H95.4064V113.612H90.3206ZM92.8635 171.457H76.8034V176.543H92.8635V171.457ZM79.3463 174V85.345H74.2606V174H79.3463ZM76.8034 87.8878H91.1752V82.8021H76.8034V87.8878ZM89.0828 86.7899L130.813 147.221L134.998 144.331L93.2677 83.9001L89.0828 86.7899ZM132.905 148.319H133.685V143.233H132.905V148.319ZM136.227 145.776V85.345H131.142V145.776H136.227ZM133.685 87.8878H149.658V82.8021H133.685V87.8878ZM178.542 174V176.543H180.372L180.953 174.809L178.542 174ZM161.4 174L159.002 173.156L157.809 176.543H161.4V174ZM192.611 85.345V82.8021H190.811L190.213 84.5006L192.611 85.345ZM212.437 85.345L214.836 84.4995L214.237 82.8021H212.437V85.345ZM243.692 174V176.543H247.284L246.09 173.155L243.692 174ZM226.549 174L224.139 174.81L224.721 176.543H226.549V174ZM202.871 103.526L205.281 102.716L204.699 100.983H202.871V103.526ZM202.178 103.526V100.983H200.349L199.767 102.718L202.178 103.526ZM179.105 139.239V136.696H176.562V139.239H179.105ZM225.857 139.239H228.4V136.696H225.857V139.239ZM225.857 152.139V154.682H228.4V152.139H225.857ZM179.105 152.139H176.562V154.682H179.105V152.139ZM178.542 171.457H161.4V176.543H178.542V171.457ZM163.799 174.844L195.01 86.1894L190.213 84.5006L159.002 173.156L163.799 174.844ZM192.611 87.8878H212.437V82.8021H192.611V87.8878ZM210.039 86.1904L241.294 174.845L246.09 173.155L214.836 84.4995L210.039 86.1904ZM243.692 171.457H226.549V176.543H243.692V171.457ZM228.96 173.19L205.281 102.716L200.46 104.336L224.139 174.81L228.96 173.19ZM202.871 100.983H202.178V106.069H202.871V100.983ZM199.767 102.718L176.132 173.191L180.953 174.809L204.589 104.335L199.767 102.718ZM179.105 141.782H225.857V136.696H179.105V141.782ZM223.314 139.239V152.139H228.4V139.239H223.314ZM225.857 149.596H179.105V154.682H225.857V149.596ZM181.648 152.139V139.239H176.562V152.139H181.648ZM327.087 115.257V117.8H329.995L329.607 114.918L327.087 115.257ZM310.897 115.257L308.392 115.693L308.758 117.8H310.897V115.257ZM308.343 108.201L306.16 109.505L306.164 109.512L306.168 109.519L308.343 108.201ZM303.711 102.92L305.277 100.916V100.916L303.711 102.92ZM297.391 99.6735L296.614 102.095L296.632 102.1L296.65 102.106L297.391 99.6735ZM277.002 102.184L278.378 104.323L278.39 104.315L277.002 102.184ZM268.258 112.747L270.571 113.802L270.574 113.797L268.258 112.747ZM268.258 146.815L265.942 147.865L265.946 147.874L265.95 147.882L268.258 146.815ZM277.002 157.291L275.631 159.432L275.64 159.438L275.65 159.444L277.002 157.291ZM297.218 159.758L297.949 162.194L297.958 162.191L297.968 162.188L297.218 159.758ZM303.495 156.598L301.984 154.552L301.977 154.558L301.969 154.564L303.495 156.598ZM308.213 151.49L306.074 150.115L306.067 150.126L306.06 150.137L308.213 151.49ZM310.897 144.564L310.911 142.021L308.792 142.01L308.399 144.092L310.897 144.564ZM327.087 144.65L329.604 145.012L330.02 142.123L327.101 142.108L327.087 144.65ZM323.148 156.511L320.917 155.291L320.913 155.298L320.91 155.305L323.148 156.511ZM315.313 166.295L316.977 168.217L316.987 168.208L315.313 166.295ZM303.971 172.874L304.832 175.267L304.839 175.265L304.846 175.262L303.971 172.874ZM268.691 169.801L269.982 167.611L268.691 169.801ZM254.233 154.174L251.974 155.342L254.233 154.174ZM254.276 105.171L256.529 106.35L256.531 106.346L254.276 105.171ZM268.777 89.544L267.486 87.3535V87.3535L268.777 89.544ZM303.322 86.2107L304.111 83.7935V83.7935L303.322 86.2107ZM314.663 92.3144L313.064 94.2917L313.075 94.3001L314.663 92.3144ZM322.845 102.098L320.619 103.327L320.624 103.337L320.63 103.347L322.845 102.098ZM327.087 112.715H310.897V117.8H327.087V112.715ZM313.403 114.822C312.893 111.894 311.942 109.236 310.518 106.884L306.168 109.519C307.226 111.265 307.978 113.311 308.392 115.693L313.403 114.822ZM310.526 106.898C309.13 104.559 307.379 102.559 305.277 100.916L302.146 104.924C303.737 106.167 305.075 107.688 306.16 109.505L310.526 106.898ZM305.277 100.916C303.17 99.2706 300.781 98.0486 298.133 97.2412L296.65 102.106C298.734 102.741 300.558 103.684 302.146 104.924L305.277 100.916ZM298.168 97.2523C295.555 96.4134 292.765 96.0051 289.816 96.0051V101.091C292.292 101.091 294.553 101.433 296.614 102.095L298.168 97.2523ZM289.816 96.0051C284.547 96.0051 279.785 97.3375 275.615 100.053L278.39 104.315C281.665 102.183 285.445 101.091 289.816 101.091V96.0051ZM275.626 100.046C271.432 102.744 268.219 106.674 265.942 111.697L270.574 113.797C272.51 109.527 275.127 106.415 278.378 104.323L275.626 100.046ZM265.945 111.691C263.647 116.727 262.555 122.751 262.555 129.672H267.641C267.641 123.261 268.655 118.002 270.571 113.802L265.945 111.691ZM262.555 129.672C262.555 136.703 263.645 142.799 265.942 147.865L270.574 145.765C268.657 141.538 267.641 136.206 267.641 129.672H262.555ZM265.95 147.882C268.256 152.868 271.467 156.764 275.631 159.432L278.374 155.149C275.15 153.084 272.531 149.997 270.566 145.747L265.95 147.882ZM275.65 159.444C279.814 162.059 284.548 163.34 289.772 163.34V158.254C285.416 158.254 281.636 157.198 278.355 155.137L275.65 159.444ZM289.772 163.34C292.65 163.34 295.38 162.964 297.949 162.194L296.487 157.322C294.438 157.937 292.205 158.254 289.772 158.254V163.34ZM297.968 162.188C300.568 161.385 302.926 160.203 305.021 158.632L301.969 154.564C300.37 155.763 298.543 156.688 296.468 157.328L297.968 162.188ZM305.005 158.644C307.143 157.065 308.931 155.126 310.366 152.843L306.06 150.137C304.956 151.894 303.599 153.36 301.984 154.552L305.005 158.644ZM310.352 152.865C311.845 150.543 312.851 147.922 313.396 145.036L308.399 144.092C307.963 146.4 307.179 148.396 306.074 150.115L310.352 152.865ZM310.884 147.107L327.074 147.193L327.101 142.108L310.911 142.021L310.884 147.107ZM324.57 144.288C324.007 148.204 322.79 151.867 320.917 155.291L325.379 157.732C327.547 153.768 328.955 149.523 329.604 145.012L324.57 144.288ZM320.91 155.305C319.066 158.725 316.647 161.748 313.638 164.381L316.987 168.208C320.443 165.185 323.247 161.686 325.386 157.718L320.91 155.305ZM313.648 164.372C310.666 166.955 307.158 168.997 303.096 170.487L304.846 175.262C309.442 173.577 313.495 171.233 316.977 168.217L313.648 164.372ZM303.11 170.482C299.095 171.927 294.586 172.669 289.556 172.669V177.755C295.088 177.755 300.19 176.938 304.832 175.267L303.11 170.482ZM289.556 172.669C282.173 172.669 275.672 170.965 269.982 167.611L267.399 171.991C273.946 175.852 281.355 177.755 289.556 177.755V172.669ZM269.982 167.611C264.309 164.266 259.811 159.427 256.491 153.006L251.974 155.342C255.696 162.542 260.836 168.122 267.399 171.991L269.982 167.611ZM256.491 153.006C253.197 146.633 251.494 138.886 251.494 129.672H246.408C246.408 139.506 248.226 148.093 251.974 155.342L256.491 153.006ZM251.494 129.672C251.494 120.431 253.211 112.689 256.529 106.35L252.023 103.992C248.241 111.217 246.408 119.809 246.408 129.672H251.494ZM256.531 106.346C259.879 99.9219 264.394 95.0805 270.069 91.7344L267.486 87.3535C260.925 91.2222 255.772 96.799 252.021 103.996L256.531 106.346ZM270.069 91.7344C275.761 88.3781 282.234 86.6758 289.556 86.6758V81.59C281.409 81.59 274.03 83.4951 267.486 87.3535L270.069 91.7344ZM289.556 86.6758C294.251 86.6758 298.57 87.3343 302.532 88.628L304.111 83.7935C299.589 82.3167 294.731 81.59 289.556 81.59V86.6758ZM302.532 88.628C306.494 89.9215 309.997 91.8113 313.064 94.2917L316.262 90.3372C312.692 87.4498 308.634 85.2704 304.111 83.7935L302.532 88.628ZM313.075 94.3001C316.123 96.739 318.638 99.7395 320.619 103.327L325.071 100.868C322.781 96.7216 319.841 93.2 316.252 90.3288L313.075 94.3001ZM320.63 103.347C322.617 106.87 323.941 110.94 324.567 115.596L329.607 114.918C328.906 109.705 327.402 105.002 325.06 100.849L320.63 103.347ZM341.794 174H339.252V176.543H341.794V174ZM341.794 85.345V82.8021H339.252V85.345H341.794ZM357.855 85.345H360.397V82.8021H357.855V85.345ZM357.855 126.08H355.312V128.622H357.855V126.08ZM358.937 126.08V128.622H360.113L360.875 127.725L358.937 126.08ZM393.524 85.345V82.8021H392.348L391.586 83.6991L393.524 85.345ZM413.134 85.345L415.06 87.005L418.682 82.8021H413.134V85.345ZM378.85 125.127L376.923 123.467L375.625 124.973L376.774 126.596L378.85 125.127ZM413.437 174V176.543H418.352L415.513 172.531L413.437 174ZM394.13 174L392.043 175.452L392.802 176.543H394.13V174ZM367.681 135.993L369.768 134.54L367.879 131.825L365.741 134.349L367.681 135.993ZM357.855 147.594L355.914 145.95L355.312 146.662V147.594H357.855ZM357.855 174V176.543H360.397V174H357.855ZM344.337 174V85.345H339.252V174H344.337ZM341.794 87.8878H357.855V82.8021H341.794V87.8878ZM355.312 85.345V126.08H360.397V85.345H355.312ZM357.855 128.622H358.937V123.537H357.855V128.622ZM360.875 127.725L395.463 86.9908L391.586 83.6991L356.998 124.434L360.875 127.725ZM393.524 87.8878H413.134V82.8021H393.524V87.8878ZM411.208 83.6849L376.923 123.467L380.776 126.787L415.06 87.005L411.208 83.6849ZM376.774 126.596L411.361 175.469L415.513 172.531L380.925 123.658L376.774 126.596ZM413.437 171.457H394.13V176.543H413.437V171.457ZM396.218 172.548L369.768 134.54L365.594 137.445L392.043 175.452L396.218 172.548ZM365.741 134.349L355.914 145.95L359.795 149.237L369.621 137.636L365.741 134.349ZM355.312 147.594V174H360.397V147.594H355.312ZM357.855 171.457H341.794V176.543H357.855V171.457ZM502.709 109.716L500.181 109.987L500.423 112.259H502.709V109.716ZM497.601 100.886L496.131 102.96L496.14 102.967L497.601 100.886ZM477.385 99.2406L478.373 101.584V101.584L477.385 99.2406ZM471.888 103.353L469.837 101.849V101.849L471.888 103.353ZM469.94 109.284L467.397 109.251L467.397 109.267V109.284H469.94ZM471.195 114.089L469.031 115.424L469.041 115.44L469.051 115.457L471.195 114.089ZM474.701 117.552L473.32 119.687L473.335 119.696L473.35 119.706L474.701 117.552ZM479.593 119.889L478.742 122.286L479.593 119.889ZM485.004 121.491L485.621 119.024L485.607 119.021L485.593 119.017L485.004 121.491ZM493.315 123.569L492.699 126.036L492.719 126.041L492.739 126.045L493.315 123.569ZM502.969 126.729L501.964 129.065L501.972 129.068L502.969 126.729ZM511.323 131.75L509.707 133.713L509.713 133.718L509.718 133.722L511.323 131.75ZM515.393 162.832L517.499 164.256L517.504 164.249L515.393 162.832ZM503.878 172.052L504.901 174.38L504.907 174.377L503.878 172.052ZM467.775 172.139L466.785 174.481L466.789 174.483L467.775 172.139ZM455.914 162.788L453.821 164.233L453.828 164.243L455.914 162.788ZM451.325 147.81V145.268H448.681L448.785 147.91L451.325 147.81ZM467.126 147.81L469.662 147.621L469.486 145.268H467.126V147.81ZM469.983 155.516L471.952 153.907L469.983 155.516ZM476.519 160.104L475.624 162.484L475.632 162.487L476.519 160.104ZM494.787 160.061L495.723 162.426L495.729 162.423L495.736 162.42L494.787 160.061ZM501.021 155.646L503.006 157.234L503.012 157.227L503.018 157.219L501.021 155.646ZM503.315 148.979L505.858 149.008L505.858 148.978L505.858 148.947L503.315 148.979ZM501.28 143.265L499.36 144.932L499.368 144.941L499.376 144.95L501.28 143.265ZM495.696 139.456L494.674 141.784L494.691 141.792L494.708 141.799L495.696 139.456ZM487.385 136.685L486.751 139.148L486.758 139.15L487.385 136.685ZM477.299 134.088L477.933 131.625L477.931 131.625L477.299 134.088ZM459.983 125.56L458.271 127.44L458.277 127.446L458.284 127.452L459.983 125.56ZM457.905 96.5567L455.849 95.0602L455.842 95.0701L457.905 96.5567ZM469.55 87.4228L470.576 89.7494L470.588 89.7443L469.55 87.4228ZM502.752 87.4228L501.683 89.73L501.692 89.7339L501.7 89.7378L502.752 87.4228ZM513.964 96.4701L511.882 97.9305L511.887 97.9378L513.964 96.4701ZM518.163 109.716V112.259H520.75L520.705 109.672L518.163 109.716ZM505.237 109.446C504.759 104.967 502.688 101.35 499.062 98.8043L496.14 102.967C498.516 104.635 499.851 106.905 500.181 109.987L505.237 109.446ZM499.071 98.8109C495.554 96.3183 491.127 95.1827 486 95.1827V100.268C490.395 100.268 493.703 101.239 496.131 102.96L499.071 98.8109ZM486 95.1827C482.406 95.1827 479.181 95.7236 476.397 96.8976L478.373 101.584C480.38 100.737 482.898 100.268 486 100.268V95.1827ZM476.397 96.8976C473.668 98.0485 471.431 99.676 469.837 101.849L473.938 104.857C474.884 103.567 476.312 102.453 478.373 101.584L476.397 96.8976ZM469.837 101.849C468.242 104.024 467.432 106.519 467.397 109.251L472.482 109.317C472.504 107.604 472.993 106.146 473.938 104.857L469.837 101.849ZM467.397 109.284C467.397 111.526 467.909 113.606 469.031 115.424L473.359 112.753C472.807 111.859 472.482 110.735 472.482 109.284H467.397ZM469.051 115.457C470.13 117.147 471.57 118.554 473.32 119.687L476.083 115.417C474.889 114.645 473.991 113.743 473.338 112.72L469.051 115.457ZM473.35 119.706C474.993 120.737 476.794 121.594 478.742 122.286L480.443 117.493C478.813 116.914 477.353 116.214 476.053 115.398L473.35 119.706ZM478.742 122.286C480.616 122.951 482.507 123.51 484.415 123.965L485.593 119.017C483.865 118.606 482.148 118.098 480.443 117.493L478.742 122.286ZM484.387 123.958L492.699 126.036L493.932 121.102L485.621 119.024L484.387 123.958ZM492.739 126.045C495.943 126.791 499.018 127.798 501.964 129.065L503.973 124.393C500.744 123.004 497.383 121.905 493.892 121.092L492.739 126.045ZM501.972 129.068C504.88 130.307 507.453 131.858 509.707 133.713L512.94 129.787C510.287 127.603 507.291 125.806 503.965 124.389L501.972 129.068ZM509.718 133.722C511.923 135.517 513.659 137.674 514.941 140.212L519.48 137.92C517.876 134.744 515.688 132.024 512.929 129.778L509.718 133.722ZM514.941 140.212C516.172 142.65 516.832 145.59 516.832 149.109H521.918C521.918 144.951 521.135 141.196 519.48 137.92L514.941 140.212ZM516.832 149.109C516.832 153.847 515.629 157.917 513.281 161.414L517.504 164.249C520.466 159.838 521.918 154.761 521.918 149.109H516.832ZM513.286 161.407C510.939 164.877 507.504 167.666 502.849 169.727L504.907 174.377C510.294 171.993 514.536 168.636 517.499 164.256L513.286 161.407ZM502.855 169.724C498.266 171.74 492.589 172.799 485.74 172.799V177.885C493.09 177.885 499.504 176.751 504.901 174.38L502.855 169.724ZM485.74 172.799C479.099 172.799 473.46 171.77 468.761 169.795L466.789 174.483C472.249 176.778 478.586 177.885 485.74 177.885V172.799ZM468.765 169.797C464.112 167.829 460.556 165.001 458 161.334L453.828 164.243C456.986 168.772 461.337 172.177 466.785 174.481L468.765 169.797ZM458.007 161.344C455.499 157.71 454.082 153.206 453.866 147.711L448.785 147.91C449.031 154.189 450.672 159.67 453.821 164.233L458.007 161.344ZM451.325 150.353H467.126V145.268H451.325V150.353ZM464.59 148C464.853 151.517 465.956 154.606 468.013 157.124L471.952 153.907C470.662 152.327 469.86 150.28 469.662 147.621L464.59 148ZM468.013 157.124C469.995 159.55 472.557 161.33 475.624 162.484L477.415 157.724C475.114 156.859 473.319 155.58 471.952 153.907L468.013 157.124ZM475.632 162.487C478.669 163.618 482.006 164.162 485.61 164.162V159.077C482.519 159.077 479.795 158.611 477.407 157.721L475.632 162.487ZM485.61 164.162C489.349 164.162 492.737 163.607 495.723 162.426L493.852 157.697C491.585 158.593 488.855 159.077 485.61 159.077V164.162ZM495.736 162.42C498.719 161.22 501.184 159.512 503.006 157.234L499.035 154.057C497.856 155.531 496.165 156.766 493.838 157.702L495.736 162.42ZM503.018 157.219C504.883 154.852 505.823 152.08 505.858 149.008L500.772 148.95C500.75 150.957 500.16 152.63 499.023 154.072L503.018 157.219ZM505.858 148.947C505.822 146.128 504.977 143.606 503.185 141.58L499.376 144.95C500.239 145.925 500.75 147.213 500.772 149.011L505.858 148.947ZM503.201 141.598C501.557 139.704 499.34 138.232 496.684 137.113L494.708 141.799C496.843 142.699 498.349 143.767 499.36 144.932L503.201 141.598ZM496.718 137.127C494.196 136.02 491.288 135.055 488.012 134.221L486.758 139.15C489.831 139.932 492.464 140.814 494.674 141.784L496.718 137.127ZM488.019 134.223L477.933 131.625L476.664 136.55L486.751 139.148L488.019 134.223ZM477.931 131.625C470.903 129.819 465.538 127.131 461.682 123.668L458.284 127.452C462.913 131.608 469.091 134.605 476.666 136.551L477.931 131.625ZM461.696 123.68C458.075 120.382 456.206 116.003 456.206 110.279H451.12C451.12 117.253 453.465 123.062 458.271 127.44L461.696 123.68ZM456.206 110.279C456.206 105.544 457.477 101.5 459.968 98.0433L455.842 95.0701C452.677 99.463 451.12 104.567 451.12 110.279H456.206ZM459.961 98.0533C462.527 94.5281 466.037 91.7522 470.576 89.7493L468.523 85.0963C463.251 87.4224 458.997 90.7357 455.849 95.0602L459.961 98.0533ZM470.588 89.7443C475.121 87.7178 480.314 86.6758 486.216 86.6758V81.59C479.709 81.59 473.791 82.7413 468.512 85.1014L470.588 89.7443ZM486.216 86.6758C492.213 86.6758 497.347 87.7206 501.683 89.73L503.821 85.1157C498.692 82.7385 492.802 81.59 486.216 81.59V86.6758ZM501.7 89.7378C506.094 91.735 509.458 94.4739 511.882 97.9305L516.046 95.0098C513.045 90.7321 508.934 87.4395 503.805 85.1079L501.7 89.7378ZM511.887 97.9378C514.287 101.332 515.542 105.245 515.621 109.761L520.705 109.672C520.611 104.203 519.067 99.2843 516.041 95.0025L511.887 97.9378ZM518.163 107.174H502.709V112.259H518.163V107.174ZM606.547 85.345H609.09V82.8021H606.547V85.345ZM606.547 174V176.543H609.09V174H606.547ZM592.262 174L590.171 175.447L590.929 176.543H592.262V174ZM550.489 113.612L552.58 112.166L551.822 111.07H550.489V113.612ZM549.753 113.612V111.07H547.21V113.612H549.753ZM549.753 174V176.543H552.296V174H549.753ZM533.693 174H531.15V176.543H533.693V174ZM533.693 85.345V82.8021H531.15V85.345H533.693ZM548.065 85.345L550.157 83.9001L549.399 82.8021H548.065V85.345ZM589.795 145.776L587.702 147.221L588.461 148.319H589.795V145.776ZM590.574 145.776V148.319H593.117V145.776H590.574ZM590.574 85.345V82.8021H588.031V85.345H590.574ZM604.005 85.345V174H609.09V85.345H604.005ZM606.547 171.457H592.262V176.543H606.547V171.457ZM594.354 172.553L552.58 112.166L548.398 115.059L590.171 175.447L594.354 172.553ZM550.489 111.07H549.753V116.155H550.489V111.07ZM547.21 113.612V174H552.296V113.612H547.21ZM549.753 171.457H533.693V176.543H549.753V171.457ZM536.236 174V85.345H531.15V174H536.236ZM533.693 87.8878H548.065V82.8021H533.693V87.8878ZM545.972 86.7899L587.702 147.221L591.887 144.331L550.157 83.9001L545.972 86.7899ZM589.795 148.319H590.574V143.233H589.795V148.319ZM593.117 145.776V85.345H588.031V145.776H593.117ZM590.574 87.8878H606.547V82.8021H590.574V87.8878ZM635.432 174V176.543H637.261L637.843 174.809L635.432 174ZM618.29 174L615.891 173.156L614.698 176.543H618.29V174ZM649.501 85.345V82.8021H647.7L647.102 84.5006L649.501 85.345ZM669.327 85.345L671.725 84.4995L671.127 82.8021H669.327V85.345ZM700.581 174V176.543H704.174L702.979 173.155L700.581 174ZM683.439 174L681.028 174.81L681.611 176.543H683.439V174ZM659.76 103.526L662.17 102.716L661.588 100.983H659.76V103.526ZM659.067 103.526V100.983H657.238L656.656 102.718L659.067 103.526ZM635.995 139.239V136.696H633.452V139.239H635.995ZM682.746 139.239H685.289V136.696H682.746V139.239ZM682.746 152.139V154.682H685.289V152.139H682.746ZM635.995 152.139H633.452V154.682H635.995V152.139ZM635.432 171.457H618.29V176.543H635.432V171.457ZM620.688 174.844L651.899 86.1894L647.102 84.5006L615.891 173.156L620.688 174.844ZM649.501 87.8878H669.327V82.8021H649.501V87.8878ZM666.929 86.1904L698.183 174.845L702.979 173.155L671.725 84.4995L666.929 86.1904ZM700.581 171.457H683.439V176.543H700.581V171.457ZM685.849 173.19L662.17 102.716L657.35 104.336L681.028 174.81L685.849 173.19ZM659.76 100.983H659.067V106.069H659.76V100.983ZM656.656 102.718L633.021 173.191L637.843 174.809L661.478 104.335L656.656 102.718ZM635.995 141.782H682.746V136.696H635.995V141.782ZM680.203 139.239V152.139H685.289V139.239H680.203ZM682.746 149.596H635.995V154.682H682.746V149.596ZM638.537 152.139V139.239H633.452V152.139H638.537ZM783.977 115.257V117.8H786.884L786.497 114.918L783.977 115.257ZM767.787 115.257L765.281 115.693L765.648 117.8H767.787V115.257ZM765.233 108.201L763.049 109.505L763.053 109.512L763.057 109.519L765.233 108.201ZM760.601 102.92L762.166 100.916V100.916L760.601 102.92ZM754.281 99.6735L753.503 102.095L753.521 102.1L753.539 102.106L754.281 99.6735ZM733.892 102.184L735.268 104.323L735.279 104.315L733.892 102.184ZM725.147 112.747L727.461 113.802L727.463 113.797L725.147 112.747ZM725.147 146.815L722.831 147.865L722.835 147.874L722.839 147.882L725.147 146.815ZM733.892 157.291L732.52 159.432L732.53 159.438L732.539 159.444L733.892 157.291ZM754.107 159.758L754.838 162.194L754.848 162.191L754.857 162.188L754.107 159.758ZM760.384 156.598L758.874 154.552L758.866 154.558L758.859 154.564L760.384 156.598ZM765.103 151.49L762.964 150.115L762.957 150.126L762.95 150.137L765.103 151.49ZM767.787 144.564L767.8 142.021L765.681 142.01L765.288 144.092L767.787 144.564ZM783.977 144.65L786.493 145.012L786.909 142.123L783.99 142.108L783.977 144.65ZM780.037 156.511L777.806 155.291L777.803 155.298L777.799 155.305L780.037 156.511ZM772.202 166.295L773.867 168.217L773.877 168.208L772.202 166.295ZM760.86 172.874L761.722 175.267L761.729 175.265L761.736 175.262L760.86 172.874ZM725.58 169.801L726.872 167.611L725.58 169.801ZM711.122 154.174L708.863 155.342L711.122 154.174ZM711.165 105.171L713.418 106.35L713.42 106.346L711.165 105.171ZM725.667 89.544L724.375 87.3535V87.3535L725.667 89.544ZM760.211 86.2107L761 83.7935V83.7935L760.211 86.2107ZM771.553 92.3144L769.954 94.2917L769.964 94.3001L771.553 92.3144ZM779.734 102.098L777.508 103.327L777.514 103.337L777.519 103.347L779.734 102.098ZM783.977 112.715H767.787V117.8H783.977V112.715ZM770.292 114.822C769.783 111.894 768.832 109.236 767.408 106.884L763.057 109.519C764.115 111.265 764.867 113.311 765.281 115.693L770.292 114.822ZM767.416 106.898C766.019 104.559 764.269 102.559 762.166 100.916L759.035 104.924C760.627 106.167 761.964 107.688 763.049 109.505L767.416 106.898ZM762.166 100.916C760.06 99.2706 757.67 98.0486 755.022 97.2412L753.539 102.106C755.624 102.741 757.448 103.684 759.035 104.924L762.166 100.916ZM755.058 97.2523C752.444 96.4134 749.654 96.0051 746.705 96.0051V101.091C749.181 101.091 751.442 101.433 753.503 102.095L755.058 97.2523ZM746.705 96.0051C741.437 96.0051 736.675 97.3375 732.504 100.053L735.279 104.315C738.554 102.183 742.335 101.091 746.705 101.091V96.0051ZM732.516 100.046C728.322 102.744 725.109 106.674 722.831 111.697L727.463 113.797C729.399 109.527 732.016 106.415 735.268 104.323L732.516 100.046ZM722.834 111.691C720.536 116.727 719.444 122.751 719.444 129.672H724.53C724.53 123.261 725.545 118.002 727.461 113.802L722.834 111.691ZM719.444 129.672C719.444 136.703 720.534 142.799 722.831 147.865L727.463 145.765C725.547 141.538 724.53 136.206 724.53 129.672H719.444ZM722.839 147.882C725.145 152.868 728.356 156.764 732.52 159.432L735.263 155.149C732.039 153.084 729.421 149.997 727.455 145.747L722.839 147.882ZM732.539 159.444C736.704 162.059 741.437 163.34 746.662 163.34V158.254C742.305 158.254 738.525 157.198 735.244 155.137L732.539 159.444ZM746.662 163.34C749.539 163.34 752.27 162.964 754.838 162.194L753.377 157.322C751.328 157.937 749.094 158.254 746.662 158.254V163.34ZM754.857 162.188C757.458 161.385 759.815 160.203 761.91 158.632L758.859 154.564C757.259 155.763 755.432 156.688 753.357 157.328L754.857 162.188ZM761.895 158.644C764.032 157.065 765.821 155.126 767.256 152.843L762.95 150.137C761.845 151.894 760.488 153.36 758.874 154.552L761.895 158.644ZM767.242 152.865C768.734 150.543 769.74 147.922 770.285 145.036L765.288 144.092C764.852 146.4 764.069 148.396 762.964 150.115L767.242 152.865ZM767.773 147.107L783.963 147.193L783.99 142.108L767.8 142.021L767.773 147.107ZM781.46 144.288C780.896 148.204 779.679 151.867 777.806 155.291L782.268 157.732C784.436 153.768 785.845 149.523 786.493 145.012L781.46 144.288ZM777.799 155.305C775.955 158.725 773.537 161.748 770.528 164.381L773.877 168.208C777.332 165.185 780.137 161.686 782.276 157.718L777.799 155.305ZM770.537 164.372C767.555 166.955 764.048 168.997 759.985 170.487L761.736 175.262C766.331 173.577 770.384 171.233 773.867 168.217L770.537 164.372ZM759.999 170.482C755.984 171.927 751.476 172.669 746.445 172.669V177.755C751.977 177.755 757.079 176.938 761.722 175.267L759.999 170.482ZM746.445 172.669C739.062 172.669 732.561 170.965 726.872 167.611L724.289 171.991C730.835 175.852 738.245 177.755 746.445 177.755V172.669ZM726.872 167.611C721.199 164.266 716.7 159.427 713.381 153.006L708.863 155.342C712.585 162.542 717.725 168.122 724.289 171.991L726.872 167.611ZM713.381 153.006C710.086 146.633 708.383 138.886 708.383 129.672H703.298C703.298 139.506 705.116 148.093 708.863 155.342L713.381 153.006ZM708.383 129.672C708.383 120.431 710.1 112.689 713.418 106.35L708.912 103.992C705.131 111.217 703.298 119.809 703.298 129.672H708.383ZM713.42 106.346C716.768 99.9219 721.283 95.0805 726.958 91.7344L724.375 87.3535C717.814 91.2222 712.661 96.799 708.91 103.996L713.42 106.346ZM726.958 91.7344C732.651 88.3781 739.124 86.6758 746.445 86.6758V81.59C738.299 81.59 730.919 83.4951 724.375 87.3535L726.958 91.7344ZM746.445 86.6758C751.14 86.6758 755.46 87.3343 759.422 88.628L761 83.7935C756.478 82.3167 751.62 81.59 746.445 81.59V86.6758ZM759.422 88.628C763.383 89.9215 766.887 91.8113 769.954 94.2917L773.152 90.3372C769.581 87.4498 765.523 85.2704 761 83.7935L759.422 88.628ZM769.964 94.3001C773.013 96.739 775.527 99.7395 777.508 103.327L781.96 100.868C779.67 96.7216 776.73 93.2 773.141 90.3288L769.964 94.3001ZM777.519 103.347C779.506 106.87 780.83 110.94 781.456 115.596L786.497 114.918C785.795 109.705 784.292 105.002 781.949 100.849L777.519 103.347ZM798.684 174H796.141V176.543H798.684V174ZM798.684 85.345V82.8021H796.141V85.345H798.684ZM814.744 85.345H817.287V82.8021H814.744V85.345ZM814.744 126.08H812.201V128.622H814.744V126.08ZM815.826 126.08V128.622H817.003L817.765 127.725L815.826 126.08ZM850.414 85.345V82.8021H849.237L848.475 83.6991L850.414 85.345ZM870.023 85.345L871.95 87.005L875.572 82.8021H870.023V85.345ZM835.739 125.127L833.813 123.467L832.515 124.973L833.663 126.596L835.739 125.127ZM870.326 174V176.543H875.241L872.402 172.531L870.326 174ZM851.02 174L848.933 175.452L849.691 176.543H851.02V174ZM824.57 135.993L826.658 134.54L824.768 131.825L822.63 134.349L824.57 135.993ZM814.744 147.594L812.804 145.95L812.201 146.662V147.594H814.744ZM814.744 174V176.543H817.287V174H814.744ZM801.227 174V85.345H796.141V174H801.227ZM798.684 87.8878H814.744V82.8021H798.684V87.8878ZM812.201 85.345V126.08H817.287V85.345H812.201ZM814.744 128.622H815.826V123.537H814.744V128.622ZM817.765 127.725L852.352 86.9908L848.475 83.6991L813.888 124.434L817.765 127.725ZM850.414 87.8878H870.023V82.8021H850.414V87.8878ZM868.097 83.6849L833.813 123.467L837.665 126.787L871.95 87.005L868.097 83.6849ZM833.663 126.596L868.251 175.469L872.402 172.531L837.815 123.658L833.663 126.596ZM870.326 171.457H851.02V176.543H870.326V171.457ZM853.107 172.548L826.658 134.54L822.483 137.445L848.933 175.452L853.107 172.548ZM822.63 134.349L812.804 145.95L816.684 149.237L826.511 137.636L822.63 134.349ZM812.201 147.594V174H817.287V147.594H812.201ZM814.744 171.457H798.684V176.543H814.744V171.457Z" fill="white" mask="url(#path-1-outside-1_8_3788)"/>
</g>
<defs>
<filter id="filter0_d_8_3788" x="-170.743" y="0.322746" width="1208.85" height="421.363" filterUnits="userSpaceOnUse" color-interpolation-filters="sRGB">
<feFlood flood-opacity="0" result="BackgroundImageFix"/>
<feColorMatrix in="SourceAlpha" type="matrix" values="0 0 0 0 0 0 0 0 0 0 0 0 0 0 0 0 0 0 127 0" result="hardAlpha"/>
<feOffset dy="81.2671"/>
<feGaussianBlur stdDeviation="81.2671"/>
<feComposite in2="hardAlpha" operator="out"/>
<feColorMatrix type="matrix" values="0 0 0 0 0 0 0 0 0 0 0 0 0 0 0 0 0 0 0.25 0"/>
<feBlend mode="normal" in2="BackgroundImageFix" result="effect1_dropShadow_8_3788"/>
<feBlend mode="normal" in="SourceGraphic" in2="effect1_dropShadow_8_3788" result="shape"/>
</filter>
</defs>
</svg>
