<svg width="390" height="315" viewBox="0 0 390 315" fill="none" xmlns="http://www.w3.org/2000/svg">
<g style="mix-blend-mode:soft-light" filter="url(#filter0_d_8_3790)">
<mask id="path-1-outside-1_8_3790" maskUnits="userSpaceOnUse" x="-197" y="61" width="660" height="72" fill="black">
<rect fill="white" x="-197" y="61" width="660" height="72"/>
<path d="M-156.374 82.0814C-156.675 79.2633 -157.944 77.0691 -160.182 75.4987C-162.397 73.9283 -165.28 73.1431 -168.83 73.1431C-171.325 73.1431 -173.466 73.5196 -175.251 74.2725C-177.037 75.0254 -178.403 76.0473 -179.349 77.338C-180.296 78.6287 -180.78 80.1023 -180.801 81.7588C-180.801 83.1355 -180.489 84.3295 -179.865 85.3406C-179.22 86.3516 -178.349 87.2121 -177.252 87.922C-176.155 88.6104 -174.939 89.1912 -173.605 89.6645C-172.272 90.1378 -170.927 90.5358 -169.572 90.8584L-163.376 92.4073C-160.881 92.9882 -158.482 93.7734 -156.18 94.7629C-153.857 95.7525 -151.781 97.0002 -149.953 98.5061C-148.103 100.012 -146.64 101.83 -145.564 103.959C-144.488 106.089 -143.951 108.585 -143.951 111.446C-143.951 115.318 -144.94 118.728 -146.919 121.675C-148.899 124.6 -151.76 126.891 -155.503 128.548C-159.224 130.183 -163.731 131 -169.023 131C-174.165 131 -178.628 130.204 -182.415 128.612C-186.179 127.021 -189.126 124.697 -191.256 121.642C-193.364 118.588 -194.504 114.866 -194.677 110.478H-182.899C-182.727 112.779 -182.017 114.694 -180.769 116.221C-179.521 117.749 -177.897 118.889 -175.896 119.642C-173.874 120.395 -171.615 120.771 -169.12 120.771C-166.517 120.771 -164.237 120.384 -162.279 119.61C-160.3 118.814 -158.751 117.717 -157.632 116.318C-156.514 114.898 -155.944 113.242 -155.922 111.349C-155.944 109.628 -156.449 108.208 -157.439 107.089C-158.428 105.949 -159.816 105.003 -161.601 104.25C-163.366 103.475 -165.431 102.787 -167.797 102.185L-175.316 100.249C-180.758 98.8503 -185.061 96.7313 -188.223 93.8917C-191.364 91.0305 -192.934 87.2336 -192.934 82.5009C-192.934 78.6072 -191.88 75.1975 -189.772 72.2719C-187.642 69.3462 -184.749 67.0766 -181.092 65.4632C-177.435 63.8283 -173.293 63.0108 -168.668 63.0108C-163.979 63.0108 -159.87 63.8283 -156.342 65.4632C-152.792 67.0766 -150.006 69.3247 -147.984 72.2073C-145.962 75.0684 -144.919 78.3598 -144.854 82.0814H-156.374ZM-78.9702 63.9143V130H-89.6188L-120.758 84.9856H-121.306V130H-133.278V63.9143H-122.565L-91.4581 108.961H-90.8773V63.9143H-78.9702ZM-57.4391 130H-70.2174L-46.9519 63.9143H-32.173L-8.87522 130H-21.6535L-39.3043 77.4671H-39.8206L-57.4391 130ZM-57.0196 104.088H-22.1698V113.704H-57.0196V104.088ZM53.2898 86.2118H41.2214C40.8772 84.2327 40.2426 82.4794 39.3176 80.9521C38.3926 79.4032 37.2417 78.0909 35.8649 77.0153C34.4881 75.9397 32.9177 75.133 31.1537 74.5952C29.4112 74.0359 27.5289 73.7562 25.5067 73.7562C21.9142 73.7562 18.7304 74.6597 15.9553 76.4667C13.1802 78.2523 11.0075 80.8768 9.43708 84.3402C7.86669 87.7822 7.08149 91.9878 7.08149 96.9572C7.08149 102.013 7.86669 106.272 9.43708 109.735C11.029 113.177 13.2017 115.78 15.9553 117.544C18.7304 119.287 21.9034 120.158 25.4745 120.158C27.4536 120.158 29.3037 119.9 31.0246 119.384C32.7671 118.846 34.3268 118.061 35.7036 117.028C37.1018 115.996 38.2743 114.726 39.2208 113.22C40.1889 111.715 40.8557 109.994 41.2214 108.057L53.2898 108.122C52.8381 111.263 51.8593 114.21 50.3534 116.964C48.8691 119.717 46.9222 122.148 44.5128 124.256C42.1034 126.343 39.2853 127.978 36.0585 129.161C32.8317 130.323 29.2499 130.904 25.3131 130.904C19.5048 130.904 14.3204 129.559 9.75977 126.87C5.19917 124.181 1.60662 120.298 -1.01787 115.221C-3.64237 110.144 -4.95462 104.056 -4.95462 96.9572C-4.95462 89.8366 -3.63161 83.7486 -0.985607 78.6933C1.6604 73.6164 5.2637 69.7334 9.8243 67.0444C14.3849 64.3553 19.5478 63.0108 25.3131 63.0108C28.9917 63.0108 32.4122 63.5271 35.5745 64.5597C38.7368 65.5923 41.5549 67.1089 44.0288 69.1096C46.5027 71.0887 48.5356 73.5196 50.1275 76.4022C51.7409 79.2633 52.795 82.5332 53.2898 86.2118ZM64.253 130V63.9143H76.2246V94.2789H77.0313L102.814 63.9143H117.431L91.8748 93.569L117.657 130H103.265L83.5495 101.668L76.2246 110.316V130H64.253ZM184.203 82.0814C183.901 79.2633 182.632 77.0691 180.395 75.4987C178.179 73.9283 175.297 73.1431 171.747 73.1431C169.252 73.1431 167.111 73.5196 165.326 74.2725C163.54 75.0254 162.174 76.0473 161.228 77.338C160.281 78.6287 159.797 80.1023 159.775 81.7588C159.775 83.1355 160.087 84.3295 160.711 85.3406C161.357 86.3516 162.228 87.2121 163.325 87.922C164.422 88.6104 165.638 89.1912 166.971 89.6645C168.305 90.1378 169.65 90.5358 171.005 90.8584L177.2 92.4073C179.696 92.9882 182.094 93.7734 184.396 94.7629C186.72 95.7525 188.796 97.0002 190.624 98.5061C192.474 100.012 193.937 101.83 195.013 103.959C196.088 106.089 196.626 108.585 196.626 111.446C196.626 115.318 195.636 118.728 193.657 121.675C191.678 124.6 188.817 126.891 185.074 128.548C181.352 130.183 176.845 131 171.553 131C166.412 131 161.948 130.204 158.162 128.612C154.397 127.021 151.45 124.697 149.321 121.642C147.212 118.588 146.072 114.866 145.9 110.478H157.678C157.85 112.779 158.56 114.694 159.808 116.221C161.055 117.749 162.68 118.889 164.68 119.642C166.702 120.395 168.961 120.771 171.457 120.771C174.06 120.771 176.34 120.384 178.298 119.61C180.277 118.814 181.826 117.717 182.944 116.318C184.063 114.898 184.633 113.242 184.654 111.349C184.633 109.628 184.127 108.208 183.138 107.089C182.148 105.949 180.761 105.003 178.975 104.25C177.211 103.475 175.146 102.787 172.78 102.185L165.261 100.249C159.818 98.8503 155.516 96.7313 152.354 93.8917C149.213 91.0305 147.643 87.2336 147.643 82.5009C147.643 78.6072 148.697 75.1975 150.805 72.2719C152.935 69.3462 155.828 67.0766 159.485 65.4632C163.142 63.8283 167.283 63.0108 171.908 63.0108C176.598 63.0108 180.707 63.8283 184.235 65.4632C187.784 67.0766 190.57 69.3247 192.592 72.2073C194.615 75.0684 195.658 78.3598 195.722 82.0814H184.203ZM261.606 63.9143V130H250.958L219.819 84.9856H219.27V130H207.299V63.9143H218.012L249.119 108.961H249.699V63.9143H261.606ZM283.138 130H270.359L293.625 63.9143H308.404L331.701 130H318.923L301.272 77.4671H300.756L283.138 130ZM283.557 104.088H318.407V113.704H283.557V104.088ZM393.866 86.2118H381.798C381.454 84.2327 380.819 82.4794 379.894 80.9521C378.969 79.4032 377.818 78.0909 376.442 77.0153C375.065 75.9397 373.494 75.133 371.73 74.5952C369.988 74.0359 368.106 73.7562 366.083 73.7562C362.491 73.7562 359.307 74.6597 356.532 76.4667C353.757 78.2523 351.584 80.8768 350.014 84.3402C348.443 87.7822 347.658 91.9878 347.658 96.9572C347.658 102.013 348.443 106.272 350.014 109.735C351.606 113.177 353.778 115.78 356.532 117.544C359.307 119.287 362.48 120.158 366.051 120.158C368.03 120.158 369.88 119.9 371.601 119.384C373.344 118.846 374.903 118.061 376.28 117.028C377.679 115.996 378.851 114.726 379.797 113.22C380.766 111.715 381.432 109.994 381.798 108.057L393.866 108.122C393.415 111.263 392.436 114.21 390.93 116.964C389.446 119.717 387.499 122.148 385.089 124.256C382.68 126.343 379.862 127.978 376.635 129.161C373.408 130.323 369.827 130.904 365.89 130.904C360.081 130.904 354.897 129.559 350.336 126.87C345.776 124.181 342.183 120.298 339.559 115.221C336.934 110.144 335.622 104.056 335.622 96.9572C335.622 89.8366 336.945 83.7486 339.591 78.6933C342.237 73.6164 345.84 69.7334 350.401 67.0444C354.962 64.3553 360.125 63.0108 365.89 63.0108C369.568 63.0108 372.989 63.5271 376.151 64.5597C379.313 65.5923 382.132 67.1089 384.605 69.1096C387.079 71.0887 389.112 73.5196 390.704 76.4022C392.318 79.2633 393.372 82.5332 393.866 86.2118ZM404.83 130V63.9143H416.801V94.2789H417.608L443.39 63.9143H458.008L432.451 93.569L458.234 130H443.842L424.126 101.668L416.801 110.316V130H404.83Z"/>
</mask>
<path d="M-156.374 82.0814L-158.259 82.2829L-158.078 83.977H-156.374V82.0814ZM-160.182 75.4987L-161.278 77.0452L-161.271 77.0502L-160.182 75.4987ZM-175.251 74.2725L-174.515 76.0191L-174.515 76.0191L-175.251 74.2725ZM-179.349 77.338L-180.878 76.2171L-180.878 76.2171L-179.349 77.338ZM-180.801 81.7588L-182.697 81.7341L-182.697 81.7465V81.7588H-180.801ZM-179.865 85.3406L-181.479 86.3359L-181.471 86.3482L-181.463 86.3604L-179.865 85.3406ZM-177.252 87.922L-178.281 89.5134L-178.27 89.5206L-178.259 89.5276L-177.252 87.922ZM-173.605 89.6645L-174.239 91.4509V91.4509L-173.605 89.6645ZM-169.572 90.8584L-169.112 89.0195L-169.122 89.017L-169.133 89.0145L-169.572 90.8584ZM-163.376 92.4073L-163.836 94.2462L-163.821 94.25L-163.806 94.2535L-163.376 92.4073ZM-156.18 94.7629L-156.929 96.5043L-156.923 96.5068L-156.18 94.7629ZM-149.953 98.5061L-151.158 99.9693L-151.149 99.9761L-149.953 98.5061ZM-146.919 121.675L-145.349 122.737L-145.346 122.731L-146.919 121.675ZM-155.503 128.548L-154.74 130.283L-154.736 130.281L-155.503 128.548ZM-182.415 128.612L-183.153 130.358L-183.149 130.36L-182.415 128.612ZM-191.256 121.642L-192.816 122.719L-192.811 122.727L-191.256 121.642ZM-194.677 110.478V108.582H-196.648L-196.571 110.552L-194.677 110.478ZM-182.899 110.478L-181.008 110.336L-181.14 108.582H-182.899V110.478ZM-180.769 116.221L-179.301 115.022L-180.769 116.221ZM-175.896 119.642L-176.564 121.416L-176.558 121.418L-175.896 119.642ZM-162.279 119.61L-161.582 121.372L-161.572 121.368L-162.279 119.61ZM-157.632 116.318L-156.152 117.502L-156.144 117.491L-157.632 116.318ZM-155.922 111.349L-154.027 111.37L-154.027 111.348L-154.027 111.325L-155.922 111.349ZM-157.439 107.089L-158.87 108.332L-158.865 108.339L-158.859 108.345L-157.439 107.089ZM-161.601 104.25L-162.363 105.985L-162.351 105.991L-162.338 105.996L-161.601 104.25ZM-167.797 102.185L-168.27 104.02L-168.265 104.022L-167.797 102.185ZM-175.316 100.249L-174.843 98.4129L-174.844 98.4127L-175.316 100.249ZM-188.223 93.8917L-189.499 95.293L-189.489 95.302L-188.223 93.8917ZM-189.772 72.2719L-191.304 71.1563L-191.31 71.1637L-189.772 72.2719ZM-181.092 65.4632L-180.326 67.1975L-180.318 67.1937L-181.092 65.4632ZM-156.342 65.4632L-157.139 67.1831L-157.126 67.1888L-156.342 65.4632ZM-147.984 72.2073L-149.536 73.2959L-149.532 73.3013L-147.984 72.2073ZM-144.854 82.0814V83.977H-142.926L-142.959 82.0486L-144.854 82.0814ZM-154.489 81.88C-154.846 78.5411 -156.389 75.8448 -159.093 73.9472L-161.271 77.0502C-159.499 78.2934 -158.504 79.9856 -158.259 82.2829L-154.489 81.88ZM-159.086 73.9522C-161.707 72.0941 -165.007 71.2476 -168.83 71.2476V75.0386C-165.553 75.0386 -163.088 75.7625 -161.278 77.0452L-159.086 73.9522ZM-168.83 71.2476C-171.508 71.2476 -173.912 71.6508 -175.988 72.5259L-174.515 76.0191C-173.019 75.3883 -171.142 75.0386 -168.83 75.0386V71.2476ZM-175.988 72.5259C-178.022 73.3839 -179.69 74.597 -180.878 76.2171L-177.821 78.4589C-177.115 77.4975 -176.051 76.667 -174.515 76.0191L-175.988 72.5259ZM-180.878 76.2171C-182.066 77.8378 -182.67 79.6977 -182.697 81.7341L-178.906 81.7834C-178.889 80.5069 -178.525 79.4197 -177.821 78.4589L-180.878 76.2171ZM-182.697 81.7588C-182.697 83.4303 -182.315 84.9807 -181.479 86.3359L-178.252 84.3452C-178.664 83.6783 -178.906 82.8408 -178.906 81.7588H-182.697ZM-181.463 86.3604C-180.659 87.6204 -179.586 88.6693 -178.281 89.5134L-176.222 86.3306C-177.112 85.755 -177.781 85.0829 -178.268 84.3207L-181.463 86.3604ZM-178.259 89.5276C-177.034 90.2962 -175.692 90.9355 -174.239 91.4509L-172.971 87.8781C-174.186 87.447 -175.275 86.9246 -176.244 86.3164L-178.259 89.5276ZM-174.239 91.4509C-172.843 91.9465 -171.433 92.3638 -170.011 92.7024L-169.133 89.0145C-170.421 88.7077 -171.701 88.3291 -172.971 87.8781L-174.239 91.4509ZM-170.032 92.6974L-163.836 94.2462L-162.917 90.5684L-169.112 89.0195L-170.032 92.6974ZM-163.806 94.2535C-161.417 94.8095 -159.126 95.56 -156.929 96.5043L-155.432 93.0215C-157.839 91.9867 -160.344 91.1668 -162.947 90.5612L-163.806 94.2535ZM-156.923 96.5068C-154.756 97.4301 -152.837 98.5859 -151.158 99.9693L-148.748 97.0429C-150.725 95.4145 -152.959 94.0749 -155.438 93.019L-156.923 96.5068ZM-151.149 99.9761C-149.506 101.314 -148.212 102.922 -147.256 104.814L-143.872 103.105C-145.068 100.738 -146.699 98.71 -148.756 97.036L-151.149 99.9761ZM-147.256 104.814C-146.338 106.631 -145.846 108.823 -145.846 111.446H-142.055C-142.055 108.346 -142.639 105.547 -143.872 103.105L-147.256 104.814ZM-145.846 111.446C-145.846 114.977 -146.743 118.012 -148.493 120.618L-145.346 122.731C-143.138 119.443 -142.055 115.659 -142.055 111.446H-145.846ZM-148.489 120.613C-150.239 123.199 -152.799 125.279 -156.27 126.815L-154.736 130.281C-150.72 128.504 -147.558 126.002 -145.349 122.737L-148.489 120.613ZM-156.265 126.812C-159.686 128.315 -163.918 129.105 -169.023 129.105V132.896C-163.544 132.896 -158.763 132.051 -154.74 130.283L-156.265 126.812ZM-169.023 129.105C-173.974 129.105 -178.177 128.338 -181.68 126.865L-183.149 130.36C-179.08 132.071 -174.356 132.896 -169.023 132.896V129.105ZM-181.676 126.867C-185.145 125.4 -187.796 123.292 -189.701 120.558L-192.811 122.727C-190.457 126.103 -187.213 128.641 -183.153 130.358L-181.676 126.867ZM-189.696 120.566C-191.565 117.857 -192.622 114.5 -192.783 110.403L-196.571 110.552C-196.387 115.233 -195.163 119.318 -192.816 122.719L-189.696 120.566ZM-194.677 112.373H-182.899V108.582H-194.677V112.373ZM-184.789 110.619C-184.593 113.24 -183.77 115.543 -182.237 117.421L-179.301 115.022C-180.263 113.845 -180.86 112.318 -181.008 110.336L-184.789 110.619ZM-182.237 117.421C-180.76 119.228 -178.85 120.555 -176.564 121.416L-175.229 117.868C-176.944 117.222 -178.282 116.269 -179.301 115.022L-182.237 117.421ZM-176.558 121.418C-174.294 122.261 -171.806 122.667 -169.12 122.667V118.876C-171.424 118.876 -173.455 118.528 -175.235 117.865L-176.558 121.418ZM-169.12 122.667C-166.333 122.667 -163.807 122.252 -161.582 121.372L-162.976 117.847C-164.666 118.516 -166.701 118.876 -169.12 118.876V122.667ZM-161.572 121.368C-159.348 120.474 -157.511 119.2 -156.152 117.502L-159.113 115.134C-159.992 116.233 -161.252 117.153 -162.986 117.851L-161.572 121.368ZM-156.144 117.491C-154.753 115.727 -154.053 113.66 -154.027 111.37L-157.818 111.327C-157.835 112.824 -158.274 114.07 -159.121 115.145L-156.144 117.491ZM-154.027 111.325C-154.053 109.223 -154.683 107.344 -156.019 105.834L-158.859 108.345C-158.216 109.072 -157.834 110.033 -157.818 111.373L-154.027 111.325ZM-156.007 105.847C-157.233 104.435 -158.886 103.338 -160.865 102.503L-162.338 105.996C-160.746 106.668 -159.624 107.464 -158.87 108.332L-156.007 105.847ZM-160.84 102.514C-162.72 101.689 -164.888 100.969 -167.329 100.348L-168.265 104.022C-165.974 104.605 -164.011 105.262 -162.363 105.985L-160.84 102.514ZM-167.324 100.349L-174.843 98.4129L-175.788 102.084L-168.27 104.02L-167.324 100.349ZM-174.844 98.4127C-180.083 97.0667 -184.082 95.0623 -186.956 92.4813L-189.489 95.302C-186.039 98.4003 -181.434 100.634 -175.787 102.084L-174.844 98.4127ZM-186.946 92.4904C-189.646 90.0316 -191.039 86.7678 -191.039 82.5009H-194.83C-194.83 87.6995 -193.082 92.0295 -189.499 95.2929L-186.946 92.4904ZM-191.039 82.5009C-191.039 78.9715 -190.091 75.9568 -188.234 73.38L-191.31 71.1637C-193.669 74.4382 -194.83 78.243 -194.83 82.5009H-191.039ZM-188.239 73.3874C-186.326 70.7596 -183.711 68.6904 -180.326 67.1975L-181.857 63.729C-185.787 65.4629 -188.958 67.9327 -191.304 71.1563L-188.239 73.3874ZM-180.318 67.1937C-176.939 65.6831 -173.068 64.9063 -168.668 64.9063V61.1153C-173.519 61.1153 -177.93 61.9735 -181.865 63.7328L-180.318 67.1937ZM-168.668 64.9063C-164.198 64.9063 -160.371 65.6852 -157.139 67.183L-155.545 63.7434C-159.369 61.9714 -163.759 61.1153 -168.668 61.1153V64.9063ZM-157.126 67.1888C-153.851 68.6776 -151.343 70.7193 -149.536 73.2959L-146.432 71.1188C-148.669 67.9301 -151.734 65.4756 -155.557 63.7376L-157.126 67.1888ZM-149.532 73.3013C-147.744 75.8318 -146.808 78.7482 -146.749 82.1143L-142.959 82.0486C-143.03 77.9714 -144.18 74.3051 -146.436 71.1133L-149.532 73.3013ZM-144.854 80.1859H-156.374V83.977H-144.854V80.1859ZM-78.9702 63.9143H-77.0747V62.0188H-78.9702V63.9143ZM-78.9702 130V131.896H-77.0747V130H-78.9702ZM-89.6188 130L-91.1777 131.078L-90.6124 131.896H-89.6188V130ZM-120.758 84.9856L-119.199 83.9072L-119.764 83.0901H-120.758V84.9856ZM-121.306 84.9856V83.0901H-123.202V84.9856H-121.306ZM-121.306 130V131.896H-119.411V130H-121.306ZM-133.278 130H-135.173V131.896H-133.278V130ZM-133.278 63.9143V62.0188H-135.173V63.9143H-133.278ZM-122.565 63.9143L-121.005 62.8373L-121.57 62.0188H-122.565V63.9143ZM-91.4581 108.961L-93.0179 110.038L-92.4527 110.857H-91.4581V108.961ZM-90.8773 108.961V110.857H-88.9818V108.961H-90.8773ZM-90.8773 63.9143V62.0188H-92.7728V63.9143H-90.8773ZM-80.8657 63.9143V130H-77.0747V63.9143H-80.8657ZM-78.9702 128.104H-89.6188V131.896H-78.9702V128.104ZM-88.0599 128.922L-119.199 83.9072L-122.317 86.064L-91.1777 131.078L-88.0599 128.922ZM-120.758 83.0901H-121.306V86.8811H-120.758V83.0901ZM-123.202 84.9856V130H-119.411V84.9856H-123.202ZM-121.306 128.104H-133.278V131.896H-121.306V128.104ZM-131.382 130V63.9143H-135.173V130H-131.382ZM-133.278 65.8099H-122.565V62.0188H-133.278V65.8099ZM-124.125 64.9914L-93.0179 110.038L-89.8983 107.884L-121.005 62.8373L-124.125 64.9914ZM-91.4581 110.857H-90.8773V107.066H-91.4581V110.857ZM-88.9818 108.961V63.9143H-92.7728V108.961H-88.9818ZM-90.8773 65.8099H-78.9702V62.0188H-90.8773V65.8099ZM-57.4391 130V131.896H-56.0756L-55.642 130.603L-57.4391 130ZM-70.2174 130L-72.0054 129.371L-72.8943 131.896H-70.2174V130ZM-46.9519 63.9143V62.0188H-48.2941L-48.7399 63.2849L-46.9519 63.9143ZM-32.173 63.9143L-30.3853 63.2841L-30.8314 62.0188H-32.173V63.9143ZM-8.87521 130V131.896H-6.19713L-7.08754 129.37L-8.87521 130ZM-21.6535 130L-23.4503 130.604L-23.0163 131.896H-21.6535V130ZM-39.3043 77.4671L-37.5075 76.8634L-37.9415 75.5716H-39.3043V77.4671ZM-39.8206 77.4671V75.5716H-41.1842L-41.6177 76.8643L-39.8206 77.4671ZM-57.0197 104.088V102.193H-58.9152V104.088H-57.0197ZM-22.1698 104.088H-20.2743V102.193H-22.1698V104.088ZM-22.1698 113.704V115.6H-20.2743V113.704H-22.1698ZM-57.0197 113.704H-58.9152V115.6H-57.0197V113.704ZM-57.4391 128.104H-70.2174V131.896H-57.4391V128.104ZM-68.4295 130.629L-45.164 64.5438L-48.7399 63.2849L-72.0054 129.371L-68.4295 130.629ZM-46.9519 65.8099H-32.173V62.0188H-46.9519V65.8099ZM-33.9607 64.5446L-10.6629 130.63L-7.08754 129.37L-30.3853 63.2841L-33.9607 64.5446ZM-8.87521 128.104H-21.6535V131.896H-8.87521V128.104ZM-19.8567 129.396L-37.5075 76.8634L-41.1011 78.0708L-23.4503 130.604L-19.8567 129.396ZM-39.3043 75.5716H-39.8206V79.3626H-39.3043V75.5716ZM-41.6177 76.8643L-59.2363 129.397L-55.642 130.603L-38.0235 78.0698L-41.6177 76.8643ZM-57.0197 105.984H-22.1698V102.193H-57.0197V105.984ZM-24.0653 104.088V113.704H-20.2743V104.088H-24.0653ZM-22.1698 111.809H-57.0197V115.6H-22.1698V111.809ZM-55.1241 113.704V104.088H-58.9152V113.704H-55.1241ZM53.2898 86.2118V88.1073H55.4573L55.1684 85.9591L53.2898 86.2118ZM41.2214 86.2118L39.354 86.5366L39.6271 88.1073H41.2214V86.2118ZM39.3176 80.9521L37.6902 81.924L37.6963 81.934L39.3176 80.9521ZM35.8649 77.0153L37.0319 75.5216V75.5216L35.8649 77.0153ZM31.1537 74.5952L30.5744 76.4L30.5876 76.4042L30.6009 76.4083L31.1537 74.5952ZM15.9553 76.4667L16.9809 78.0608L16.9896 78.0552L15.9553 76.4667ZM9.43709 84.3402L11.1616 85.127L11.1634 85.123L9.43709 84.3402ZM9.43709 109.735L7.71074 110.518L7.71368 110.525L7.71667 110.531L9.43709 109.735ZM15.9553 117.544L14.9328 119.14L14.94 119.145L14.9473 119.15L15.9553 117.544ZM31.0246 119.384L31.5693 121.199L31.5765 121.197L31.5836 121.195L31.0246 119.384ZM35.7036 117.028L34.5775 115.503L34.5663 115.512L35.7036 117.028ZM39.2208 113.22L37.6263 112.195L37.6211 112.204L37.616 112.212L39.2208 113.22ZM41.2214 108.057L41.2316 106.162L39.652 106.154L39.3589 107.706L41.2214 108.057ZM53.2898 108.122L55.166 108.392L55.4758 106.238L53.3 106.227L53.2898 108.122ZM50.3534 116.964L48.6903 116.054L48.6849 116.064L50.3534 116.964ZM44.5128 124.256L45.7538 125.689L45.761 125.683L44.5128 124.256ZM36.0585 129.161L36.7006 130.945L36.711 130.941L36.0585 129.161ZM9.75977 126.87L10.7225 125.237L9.75977 126.87ZM-1.01787 115.221L-2.70171 116.092L-1.01787 115.221ZM-0.985611 78.6933L0.693771 79.5723L0.695297 79.5693L-0.985611 78.6933ZM9.82431 67.0444L8.86156 65.4116V65.4116L9.82431 67.0444ZM35.5745 64.5597L36.1628 62.7578V62.7578L35.5745 64.5597ZM44.0288 69.1096L42.8369 70.5834L42.8447 70.5897L44.0288 69.1096ZM50.1275 76.4022L48.4682 77.3185L48.4723 77.3259L48.4764 77.3333L50.1275 76.4022ZM53.2898 84.3163H41.2214V88.1073H53.2898V84.3163ZM43.0889 85.887C42.7093 83.7043 42.0005 81.723 40.939 79.9701L37.6963 81.934C38.4847 83.2359 39.0452 84.761 39.354 86.5366L43.0889 85.887ZM40.945 79.9801C39.904 78.2371 38.599 76.7459 37.0319 75.5216L34.6979 78.509C35.8843 79.4359 36.8812 80.5693 37.6902 81.924L40.945 79.9801ZM37.0319 75.5216C35.4616 74.2949 33.6806 73.3839 31.7065 72.7821L30.6009 76.4083C32.1548 76.882 33.5146 77.5845 34.6979 78.509L37.0319 75.5216ZM31.733 72.7904C29.7848 72.165 27.7051 71.8607 25.5067 71.8607V75.6517C27.3527 75.6517 29.0377 75.9067 30.5744 76.4L31.733 72.7904ZM25.5067 71.8607C21.5794 71.8607 18.03 72.8539 14.921 74.8783L16.9896 78.0552C19.4308 76.4656 22.2489 75.6517 25.5067 75.6517V71.8607ZM14.9297 74.8727C11.8032 76.8843 9.40826 79.8136 7.71074 83.5575L11.1634 85.123C12.6067 81.9399 14.5572 79.6202 16.9809 78.0608L14.9297 74.8727ZM7.71259 83.5534C6.00003 87.307 5.18597 91.7977 5.18597 96.9572H8.97701C8.97701 92.178 9.73334 88.2574 11.1616 85.127L7.71259 83.5534ZM5.18597 96.9572C5.18597 102.198 5.99855 106.742 7.71074 110.518L11.1634 108.953C9.73483 105.802 8.97701 101.827 8.97701 96.9572H5.18597ZM7.71667 110.531C9.43549 114.248 11.829 117.152 14.9328 119.14L16.9778 115.948C14.5744 114.409 12.6225 112.107 11.1575 108.94L7.71667 110.531ZM14.9473 119.15C18.0514 121.099 21.5801 122.054 25.4745 122.054V118.263C22.2268 118.263 19.4094 117.475 16.9633 115.939L14.9473 119.15ZM25.4745 122.054C27.6195 122.054 29.6547 121.774 31.5693 121.199L30.4799 117.568C28.9526 118.026 27.2877 118.263 25.4745 118.263V122.054ZM31.5836 121.195C33.5219 120.597 35.2795 119.716 36.8409 118.545L34.5663 115.512C33.374 116.406 32.0123 117.095 30.4656 117.572L31.5836 121.195ZM36.8296 118.553C38.4228 117.376 39.7561 115.931 40.8256 114.229L37.616 112.212C36.7924 113.522 35.7809 114.615 34.5775 115.503L36.8296 118.553ZM40.8153 114.245C41.9278 112.515 42.6776 110.561 43.084 108.409L39.3589 107.706C39.0338 109.426 38.4499 110.914 37.6263 112.195L40.8153 114.245ZM41.2113 109.953L53.2797 110.018L53.3 106.227L41.2316 106.162L41.2113 109.953ZM51.4136 107.852C50.9937 110.771 50.0863 113.502 48.6903 116.054L52.0164 117.873C53.6322 114.919 54.6824 111.754 55.166 108.392L51.4136 107.852ZM48.6849 116.064C47.3105 118.614 45.5076 120.867 43.2646 122.83L45.761 125.683C48.3368 123.429 50.4276 120.821 52.0219 117.863L48.6849 116.064ZM43.2719 122.823C41.0492 124.748 38.4342 126.271 35.406 127.381L36.711 130.941C40.1364 129.685 43.1577 127.937 45.7538 125.689L43.2719 122.823ZM35.4164 127.378C32.4236 128.455 29.0629 129.008 25.3131 129.008V132.799C29.4369 132.799 33.2398 132.19 36.7006 130.944L35.4164 127.378ZM25.3131 129.008C19.8096 129.008 14.9636 127.738 10.7225 125.237L8.79703 128.503C13.6772 131.38 19.2001 132.799 25.3131 132.799V129.008ZM10.7225 125.237C6.4937 122.744 3.14017 119.137 0.665955 114.351L-2.70171 116.092C0.0730743 121.459 3.90465 125.618 8.79703 128.503L10.7225 125.237ZM0.665955 114.351C-1.78978 109.6 -3.05911 103.825 -3.05911 96.9572H-6.85013C-6.85013 104.287 -5.49496 110.688 -2.70171 116.092L0.665955 114.351ZM-3.05911 96.9572C-3.05911 90.0683 -1.77936 84.2973 0.693771 79.5723L-2.66499 77.8143C-5.48387 83.2 -6.85013 89.6049 -6.85013 96.9572H-3.05911ZM0.695297 79.5693C3.19128 74.7803 6.55675 71.1715 10.787 68.6772L8.86156 65.4116C3.97066 68.2954 0.129517 72.4524 -2.66652 77.8172L0.695297 79.5693ZM10.787 68.6772C15.0303 66.1753 19.8554 64.9063 25.3131 64.9063V61.1153C19.2403 61.1153 13.7395 62.5354 8.86156 65.4116L10.787 68.6772ZM25.3131 64.9063C28.8129 64.9063 32.0327 65.3972 34.9861 66.3616L36.1628 62.7578C32.7916 61.657 29.1706 61.1153 25.3131 61.1153V64.9063ZM34.9861 66.3616C37.9391 67.3258 40.5506 68.7345 42.8369 70.5834L45.2207 67.6357C42.5592 65.4833 39.5345 63.8588 36.1628 62.7578L34.9861 66.3616ZM42.8447 70.5897C45.1172 72.4077 46.9915 74.6444 48.4682 77.3185L51.7868 75.4859C50.0798 72.3947 47.8882 69.7697 45.2129 67.6294L42.8447 70.5897ZM48.4764 77.3333C49.9573 79.9593 50.9444 82.9936 51.4112 86.4645L55.1684 85.9591C54.6457 82.0728 53.5246 78.5674 51.7786 75.4711L48.4764 77.3333ZM64.253 130H62.3575V131.896H64.253V130ZM64.253 63.9143V62.0188H62.3575V63.9143H64.253ZM76.2246 63.9143H78.1201V62.0188H76.2246V63.9143ZM76.2246 94.2789H74.3291V96.1744H76.2246V94.2789ZM77.0313 94.2789V96.1744H77.9084L78.4762 95.5058L77.0313 94.2789ZM102.814 63.9143V62.0188H101.937L101.369 62.6875L102.814 63.9143ZM117.431 63.9143L118.867 65.1518L121.567 62.0188H117.431V63.9143ZM91.8748 93.569L90.4389 92.3316L89.4714 93.4542L90.3275 94.664L91.8748 93.569ZM117.657 130V131.896H121.321L119.204 128.905L117.657 130ZM103.266 130L101.71 131.083L102.275 131.896H103.266V130ZM83.5495 101.668L85.1054 100.586L83.6969 98.5616L82.1031 100.443L83.5495 101.668ZM76.2246 110.316L74.7782 109.091L74.3291 109.621V110.316H76.2246ZM76.2246 130V131.896H78.1201V130H76.2246ZM66.1485 130V63.9143H62.3575V130H66.1485ZM64.253 65.8099H76.2246V62.0188H64.253V65.8099ZM74.3291 63.9143V94.2789H78.1201V63.9143H74.3291ZM76.2246 96.1744H77.0313V92.3834H76.2246V96.1744ZM78.4762 95.5058L104.259 65.1412L101.369 62.6875L75.5864 93.052L78.4762 95.5058ZM102.814 65.8099H117.431V62.0188H102.814V65.8099ZM115.995 62.6769L90.4389 92.3316L93.3106 94.8064L118.867 65.1518L115.995 62.6769ZM90.3275 94.664L116.11 131.095L119.204 128.905L93.422 92.474L90.3275 94.664ZM117.657 128.104H103.266V131.896H117.657V128.104ZM104.821 128.917L85.1054 100.586L81.9937 102.751L101.71 131.083L104.821 128.917ZM82.1031 100.443L74.7782 109.091L77.671 111.541L84.9959 102.893L82.1031 100.443ZM74.3291 110.316V130H78.1201V110.316H74.3291ZM76.2246 128.104H64.253V131.896H76.2246V128.104ZM184.203 82.0814L182.318 82.2829L182.499 83.977H184.203V82.0814ZM180.395 75.4987L179.299 77.0452L179.306 77.0502L180.395 75.4987ZM165.326 74.2725L166.062 76.0191V76.0191L165.326 74.2725ZM161.228 77.338L159.699 76.2171V76.2171L161.228 77.338ZM159.775 81.7588L157.88 81.7341L157.88 81.7465V81.7588H159.775ZM160.711 85.3406L159.098 86.3359L159.106 86.3482L159.113 86.3604L160.711 85.3406ZM163.325 87.922L162.295 89.5134L162.306 89.5206L162.318 89.5276L163.325 87.922ZM166.971 89.6645L166.337 91.4509V91.4509L166.971 89.6645ZM171.005 90.8584L171.465 89.0195L171.454 89.017L171.444 89.0145L171.005 90.8584ZM177.2 92.4073L176.741 94.2462L176.756 94.25L176.771 94.2535L177.2 92.4073ZM184.396 94.7629L183.648 96.5043L183.653 96.5068L184.396 94.7629ZM190.624 98.5061L189.419 99.9693L189.427 99.9761L190.624 98.5061ZM193.657 121.675L195.227 122.737L195.231 122.731L193.657 121.675ZM185.074 128.548L185.836 130.283L185.841 130.281L185.074 128.548ZM158.162 128.612L157.424 130.358L157.427 130.36L158.162 128.612ZM149.321 121.642L147.76 122.719L147.766 122.727L149.321 121.642ZM145.9 110.478V108.582H143.929L144.006 110.552L145.9 110.478ZM157.678 110.478L159.568 110.336L159.437 108.582H157.678V110.478ZM159.808 116.221L161.276 115.022L159.808 116.221ZM164.68 119.642L164.013 121.416L164.019 121.418L164.68 119.642ZM178.298 119.61L178.995 121.372L179.005 121.368L178.298 119.61ZM182.944 116.318L184.424 117.502L184.433 117.491L182.944 116.318ZM184.654 111.349L186.55 111.37L186.55 111.348L186.55 111.325L184.654 111.349ZM183.138 107.089L181.706 108.332L181.712 108.339L181.718 108.345L183.138 107.089ZM178.975 104.25L178.213 105.985L178.226 105.991L178.239 105.996L178.975 104.25ZM172.78 102.185L172.307 104.02L172.312 104.022L172.78 102.185ZM165.261 100.249L165.734 98.4129L165.733 98.4127L165.261 100.249ZM152.354 93.8917L151.077 95.293L151.087 95.302L152.354 93.8917ZM150.805 72.2719L149.272 71.1563L149.267 71.1637L150.805 72.2719ZM159.485 65.4632L160.25 67.1975L160.259 67.1937L159.485 65.4632ZM184.235 65.4632L183.438 67.1831L183.451 67.1888L184.235 65.4632ZM192.592 72.2073L191.041 73.2959L191.044 73.3013L192.592 72.2073ZM195.722 82.0814V83.977H197.651L197.618 82.0486L195.722 82.0814ZM186.087 81.88C185.731 78.5411 184.187 75.8448 181.484 73.9472L179.306 77.0502C181.077 78.2934 182.072 79.9856 182.318 82.2829L186.087 81.88ZM181.491 73.9522C178.869 72.0941 175.569 71.2476 171.747 71.2476V75.0386C175.024 75.0386 177.489 75.7625 179.299 77.0452L181.491 73.9522ZM171.747 71.2476C169.068 71.2476 166.664 71.6508 164.589 72.5259L166.062 76.0191C167.558 75.3883 169.435 75.0386 171.747 75.0386V71.2476ZM164.589 72.5259C162.555 73.3839 160.887 74.597 159.699 76.2171L162.756 78.4589C163.461 77.4975 164.526 76.667 166.062 76.0191L164.589 72.5259ZM159.699 76.2171C158.51 77.8378 157.907 79.6977 157.88 81.7341L161.671 81.7834C161.687 80.5069 162.052 79.4197 162.756 78.4589L159.699 76.2171ZM157.88 81.7588C157.88 83.4303 158.262 84.9807 159.098 86.3359L162.324 84.3452C161.913 83.6783 161.671 82.8408 161.671 81.7588H157.88ZM159.113 86.3604C159.918 87.6204 160.991 88.6693 162.295 89.5134L164.355 86.3306C163.465 85.755 162.796 85.0829 162.309 84.3207L159.113 86.3604ZM162.318 89.5276C163.542 90.2962 164.885 90.9355 166.337 91.4509L167.605 87.8781C166.39 87.447 165.302 86.9246 164.332 86.3164L162.318 89.5276ZM166.337 91.4509C167.734 91.9465 169.144 92.3638 170.566 92.7024L171.444 89.0145C170.156 88.7077 168.876 88.3291 167.605 87.8781L166.337 91.4509ZM170.545 92.6974L176.741 94.2462L177.66 90.5684L171.465 89.0195L170.545 92.6974ZM176.771 94.2535C179.159 94.8095 181.451 95.56 183.648 96.5043L185.145 93.0215C182.738 91.9867 180.232 91.1668 177.63 90.5612L176.771 94.2535ZM183.653 96.5068C185.821 97.4301 187.739 98.5859 189.419 99.9693L191.829 97.0429C189.852 95.4145 187.618 94.0749 185.139 93.019L183.653 96.5068ZM189.427 99.9761C191.071 101.314 192.365 102.922 193.321 104.814L196.705 103.105C195.509 100.738 193.877 98.71 191.821 97.036L189.427 99.9761ZM193.321 104.814C194.238 106.631 194.73 108.823 194.73 111.446H198.521C198.521 108.346 197.938 105.547 196.705 103.105L193.321 104.814ZM194.73 111.446C194.73 114.977 193.834 118.012 192.084 120.618L195.231 122.731C197.439 119.443 198.521 115.659 198.521 111.446H194.73ZM192.087 120.613C190.337 123.199 187.777 125.279 184.307 126.815L185.841 130.281C189.857 128.504 193.019 126.002 195.227 122.737L192.087 120.613ZM184.311 126.812C180.891 128.315 176.659 129.105 171.553 129.105V132.896C177.032 132.896 181.814 132.051 185.836 130.283L184.311 126.812ZM171.553 129.105C166.603 129.105 162.4 128.338 158.897 126.865L157.427 130.36C161.497 132.071 166.221 132.896 171.553 132.896V129.105ZM158.9 126.867C155.432 125.4 152.781 123.292 150.875 120.558L147.766 122.727C150.119 126.103 153.363 128.641 157.424 130.358L158.9 126.867ZM150.881 120.566C149.011 117.857 147.955 114.5 147.794 110.403L144.006 110.552C144.19 115.233 145.413 119.318 147.76 122.719L150.881 120.566ZM145.9 112.373H157.678V108.582H145.9V112.373ZM155.788 110.619C155.984 113.24 156.806 115.543 158.34 117.421L161.276 115.022C160.314 113.845 159.716 112.318 159.568 110.336L155.788 110.619ZM158.34 117.421C159.816 119.228 161.726 120.555 164.013 121.416L165.348 117.868C163.633 117.222 162.294 116.269 161.276 115.022L158.34 117.421ZM164.019 121.418C166.283 122.261 168.77 122.667 171.457 122.667V118.876C169.152 118.876 167.122 118.528 165.342 117.865L164.019 121.418ZM171.457 122.667C174.244 122.667 176.77 122.252 178.995 121.372L177.6 117.847C175.91 118.516 173.875 118.876 171.457 118.876V122.667ZM179.005 121.368C181.229 120.474 183.066 119.2 184.424 117.502L181.464 115.134C180.585 116.233 179.325 117.153 177.59 117.851L179.005 121.368ZM184.433 117.491C185.823 115.727 186.524 113.66 186.55 111.37L182.759 111.327C182.742 112.824 182.302 114.07 181.455 115.145L184.433 117.491ZM186.55 111.325C186.523 109.223 185.894 107.344 184.558 105.834L181.718 108.345C182.361 109.072 182.742 110.033 182.759 111.373L186.55 111.325ZM184.569 105.847C183.344 104.435 181.691 103.338 179.712 102.503L178.239 105.996C179.83 106.668 180.953 107.464 181.706 108.332L184.569 105.847ZM179.737 102.514C177.857 101.689 175.689 100.969 173.247 100.348L172.312 104.022C174.603 104.605 176.566 105.262 178.213 105.985L179.737 102.514ZM173.252 100.349L165.734 98.4129L164.788 102.084L172.307 104.02L173.252 100.349ZM165.733 98.4127C160.494 97.0667 156.494 95.0623 153.62 92.4813L151.087 95.302C154.538 98.4003 159.143 100.634 164.789 102.084L165.733 98.4127ZM153.63 92.4904C150.931 90.0316 149.538 86.7678 149.538 82.5009H145.747C145.747 87.6995 147.495 92.0295 151.077 95.2929L153.63 92.4904ZM149.538 82.5009C149.538 78.9715 150.486 75.9568 152.343 73.38L149.267 71.1637C146.907 74.4382 145.747 78.243 145.747 82.5009H149.538ZM152.337 73.3874C154.25 70.7596 156.866 68.6904 160.25 67.1975L158.72 63.729C154.79 65.4629 151.619 67.9327 149.272 71.1563L152.337 73.3874ZM160.259 67.1937C163.638 65.6831 167.509 64.9063 171.908 64.9063V61.1153C167.058 61.1153 162.647 61.9735 158.711 63.7328L160.259 67.1937ZM171.908 64.9063C176.379 64.9063 180.206 65.6852 183.438 67.183L185.032 63.7434C181.208 61.9714 176.818 61.1153 171.908 61.1153V64.9063ZM183.451 67.1888C186.726 68.6776 189.233 70.7193 191.041 73.2959L194.144 71.1188C191.907 67.9301 188.843 65.4756 185.019 63.7376L183.451 67.1888ZM191.044 73.3013C192.833 75.8318 193.769 78.7482 193.827 82.1143L197.618 82.0486C197.547 77.9714 196.396 74.3051 194.14 71.1133L191.044 73.3013ZM195.722 80.1859H184.203V83.977H195.722V80.1859ZM261.606 63.9143H263.502V62.0188H261.606V63.9143ZM261.606 130V131.896H263.502V130H261.606ZM250.958 130L249.399 131.078L249.964 131.896H250.958V130ZM219.819 84.9856L221.378 83.9072L220.812 83.0901H219.819V84.9856ZM219.27 84.9856V83.0901H217.375V84.9856H219.27ZM219.27 130V131.896H221.166V130H219.27ZM207.299 130H205.403V131.896H207.299V130ZM207.299 63.9143V62.0188H205.403V63.9143H207.299ZM218.012 63.9143L219.572 62.8373L219.006 62.0188H218.012V63.9143ZM249.119 108.961L247.559 110.038L248.124 110.857H249.119V108.961ZM249.699 108.961V110.857H251.595V108.961H249.699ZM249.699 63.9143V62.0188H247.804V63.9143H249.699ZM259.711 63.9143V130H263.502V63.9143H259.711ZM261.606 128.104H250.958V131.896H261.606V128.104ZM252.517 128.922L221.378 83.9072L218.26 86.064L249.399 131.078L252.517 128.922ZM219.819 83.0901H219.27V86.8811H219.819V83.0901ZM217.375 84.9856V130H221.166V84.9856H217.375ZM219.27 128.104H207.299V131.896H219.27V128.104ZM209.194 130V63.9143H205.403V130H209.194ZM207.299 65.8099H218.012V62.0188H207.299V65.8099ZM216.452 64.9914L247.559 110.038L250.678 107.884L219.572 62.8373L216.452 64.9914ZM249.119 110.857H249.699V107.066H249.119V110.857ZM251.595 108.961V63.9143H247.804V108.961H251.595ZM249.699 65.8099H261.606V62.0188H249.699V65.8099ZM283.138 130V131.896H284.501L284.935 130.603L283.138 130ZM270.359 130L268.571 129.371L267.682 131.896H270.359V130ZM293.625 63.9143V62.0188H292.283L291.837 63.2849L293.625 63.9143ZM308.404 63.9143L310.191 63.2841L309.745 62.0188H308.404V63.9143ZM331.701 130V131.896H334.38L333.489 129.37L331.701 130ZM318.923 130L317.126 130.604L317.56 131.896H318.923V130ZM301.272 77.4671L303.069 76.8634L302.635 75.5716H301.272V77.4671ZM300.756 77.4671V75.5716H299.393L298.959 76.8643L300.756 77.4671ZM283.557 104.088V102.193H281.661V104.088H283.557ZM318.407 104.088H320.302V102.193H318.407V104.088ZM318.407 113.704V115.6H320.302V113.704H318.407ZM283.557 113.704H281.661V115.6H283.557V113.704ZM283.138 128.104H270.359V131.896H283.138V128.104ZM272.147 130.629L295.413 64.5438L291.837 63.2849L268.571 129.371L272.147 130.629ZM293.625 65.8099H308.404V62.0188H293.625V65.8099ZM306.616 64.5446L329.914 130.63L333.489 129.37L310.191 63.2841L306.616 64.5446ZM331.701 128.104H318.923V131.896H331.701V128.104ZM320.72 129.396L303.069 76.8634L299.476 78.0708L317.126 130.604L320.72 129.396ZM301.272 75.5716H300.756V79.3626H301.272V75.5716ZM298.959 76.8643L281.34 129.397L284.935 130.603L302.553 78.0698L298.959 76.8643ZM283.557 105.984H318.407V102.193H283.557V105.984ZM316.511 104.088V113.704H320.302V104.088H316.511ZM318.407 111.809H283.557V115.6H318.407V111.809ZM285.453 113.704V104.088H281.661V113.704H285.453ZM393.867 86.2118V88.1073H396.034L395.745 85.9591L393.867 86.2118ZM381.798 86.2118L379.931 86.5366L380.204 88.1073H381.798V86.2118ZM379.894 80.9521L378.267 81.924L378.273 81.934L379.894 80.9521ZM376.442 77.0153L377.609 75.5216V75.5216L376.442 77.0153ZM371.73 74.5952L371.151 76.4L371.164 76.4042L371.178 76.4083L371.73 74.5952ZM356.532 76.4667L357.558 78.0608L357.566 78.0552L356.532 76.4667ZM350.014 84.3402L351.738 85.127L351.74 85.123L350.014 84.3402ZM350.014 109.735L348.287 110.518L348.29 110.525L348.293 110.531L350.014 109.735ZM356.532 117.544L355.509 119.14L355.517 119.145L355.524 119.15L356.532 117.544ZM371.601 119.384L372.146 121.199L372.153 121.197L372.16 121.195L371.601 119.384ZM376.28 117.028L375.154 115.503L375.143 115.512L376.28 117.028ZM379.797 113.22L378.203 112.195L378.198 112.204L378.193 112.212L379.797 113.22ZM381.798 108.057L381.808 106.162L380.229 106.154L379.936 107.706L381.798 108.057ZM393.867 108.122L395.743 108.392L396.052 106.238L393.877 106.227L393.867 108.122ZM390.93 116.964L389.267 116.054L389.262 116.064L390.93 116.964ZM385.089 124.256L386.33 125.689L386.338 125.683L385.089 124.256ZM376.635 129.161L377.277 130.945L377.288 130.941L376.635 129.161ZM350.336 126.87L351.299 125.237L350.336 126.87ZM339.559 115.221L337.875 116.092L339.559 115.221ZM339.591 78.6933L341.27 79.5723L341.272 79.5693L339.591 78.6933ZM350.401 67.0444L349.438 65.4116V65.4116L350.401 67.0444ZM376.151 64.5597L376.74 62.7578V62.7578L376.151 64.5597ZM384.605 69.1096L383.414 70.5834L383.421 70.5897L384.605 69.1096ZM390.704 76.4022L389.045 77.3185L389.049 77.3259L389.053 77.3333L390.704 76.4022ZM393.867 84.3163H381.798V88.1073H393.867V84.3163ZM383.666 85.887C383.286 83.7043 382.577 81.723 381.516 79.9701L378.273 81.934C379.061 83.2359 379.622 84.761 379.931 86.5366L383.666 85.887ZM381.522 79.9801C380.481 78.2371 379.176 76.7459 377.609 75.5216L375.275 78.509C376.461 79.4359 377.458 80.5693 378.267 81.924L381.522 79.9801ZM377.609 75.5216C376.038 74.2949 374.257 73.3839 372.283 72.7821L371.178 76.4083C372.732 76.882 374.091 77.5845 375.275 78.509L377.609 75.5216ZM372.31 72.7904C370.361 72.165 368.282 71.8607 366.083 71.8607V75.6517C367.929 75.6517 369.614 75.9067 371.151 76.4L372.31 72.7904ZM366.083 71.8607C362.156 71.8607 358.607 72.8539 355.498 74.8783L357.566 78.0552C360.008 76.4656 362.826 75.6517 366.083 75.6517V71.8607ZM355.506 74.8727C352.38 76.8843 349.985 79.8136 348.287 83.5575L351.74 85.123C353.183 81.9399 355.134 79.6202 357.558 78.0608L355.506 74.8727ZM348.289 83.5534C346.577 87.307 345.763 91.7977 345.763 96.9572H349.554C349.554 92.178 350.31 88.2574 351.738 85.127L348.289 83.5534ZM345.763 96.9572C345.763 102.198 346.575 106.742 348.287 110.518L351.74 108.953C350.312 105.802 349.554 101.827 349.554 96.9572H345.763ZM348.293 110.531C350.012 114.248 352.406 117.152 355.509 119.14L357.554 115.948C355.151 114.409 353.199 112.107 351.734 108.94L348.293 110.531ZM355.524 119.15C358.628 121.099 362.157 122.054 366.051 122.054V118.263C362.803 118.263 359.986 117.475 357.54 115.939L355.524 119.15ZM366.051 122.054C368.196 122.054 370.231 121.774 372.146 121.199L371.057 117.568C369.529 118.026 367.864 118.263 366.051 118.263V122.054ZM372.16 121.195C374.099 120.597 375.856 119.716 377.418 118.545L375.143 115.512C373.951 116.406 372.589 117.095 371.042 117.572L372.16 121.195ZM377.406 118.553C378.999 117.376 380.333 115.931 381.402 114.229L378.193 112.212C377.369 113.522 376.358 114.615 375.154 115.503L377.406 118.553ZM381.392 114.245C382.505 112.515 383.254 110.561 383.661 108.409L379.936 107.706C379.611 109.426 379.027 110.914 378.203 112.195L381.392 114.245ZM381.788 109.953L393.856 110.018L393.877 106.227L381.808 106.162L381.788 109.953ZM391.99 107.852C391.57 110.771 390.663 113.502 389.267 116.054L392.593 117.873C394.209 114.919 395.259 111.754 395.743 108.392L391.99 107.852ZM389.262 116.064C387.887 118.614 386.084 120.867 383.841 122.83L386.338 125.683C388.913 123.429 391.004 120.821 392.599 117.863L389.262 116.064ZM383.849 122.823C381.626 124.748 379.011 126.271 375.983 127.381L377.288 130.941C380.713 129.685 383.734 127.937 386.33 125.689L383.849 122.823ZM375.993 127.378C373 128.455 369.64 129.008 365.89 129.008V132.799C370.014 132.799 373.816 132.19 377.277 130.944L375.993 127.378ZM365.89 129.008C360.386 129.008 355.54 127.738 351.299 125.237L349.374 128.503C354.254 131.38 359.777 132.799 365.89 132.799V129.008ZM351.299 125.237C347.07 122.744 343.717 119.137 341.243 114.351L337.875 116.092C340.65 121.459 344.481 125.618 349.374 128.503L351.299 125.237ZM341.243 114.351C338.787 109.6 337.518 103.825 337.518 96.9572H333.727C333.727 104.287 335.082 110.688 337.875 116.092L341.243 114.351ZM337.518 96.9572C337.518 90.0683 338.797 84.2973 341.27 79.5723L337.912 77.8143C335.093 83.2 333.727 89.6049 333.727 96.9572H337.518ZM341.272 79.5693C343.768 74.7803 347.133 71.1715 351.364 68.6772L349.438 65.4116C344.547 68.2954 340.706 72.4524 337.91 77.8172L341.272 79.5693ZM351.364 68.6772C355.607 66.1753 360.432 64.9063 365.89 64.9063V61.1153C359.817 61.1153 354.316 62.5354 349.438 65.4116L351.364 68.6772ZM365.89 64.9063C369.39 64.9063 372.609 65.3972 375.563 66.3616L376.74 62.7578C373.368 61.657 369.747 61.1153 365.89 61.1153V64.9063ZM375.563 66.3616C378.516 67.3258 381.127 68.7345 383.414 70.5834L385.797 67.6357C383.136 65.4833 380.111 63.8588 376.74 62.7578L375.563 66.3616ZM383.421 70.5897C385.694 72.4077 387.568 74.6444 389.045 77.3185L392.364 75.4859C390.656 72.3947 388.465 69.7697 385.79 67.6294L383.421 70.5897ZM389.053 77.3333C390.534 79.9593 391.521 82.9936 391.988 86.4645L395.745 85.9591C395.222 82.0728 394.101 78.5674 392.355 75.4711L389.053 77.3333ZM404.83 130H402.934V131.896H404.83V130ZM404.83 63.9143V62.0188H402.934V63.9143H404.83ZM416.801 63.9143H418.697V62.0188H416.801V63.9143ZM416.801 94.2789H414.906V96.1744H416.801V94.2789ZM417.608 94.2789V96.1744H418.485L419.053 95.5058L417.608 94.2789ZM443.39 63.9143V62.0188H442.513L441.945 62.6875L443.39 63.9143ZM458.008 63.9143L459.444 65.1518L462.144 62.0188H458.008V63.9143ZM432.451 93.569L431.016 92.3316L430.048 93.4542L430.904 94.664L432.451 93.569ZM458.234 130V131.896H461.898L459.781 128.905L458.234 130ZM443.842 130L442.286 131.083L442.852 131.896H443.842V130ZM424.126 101.668L425.682 100.586L424.273 98.5616L422.68 100.443L424.126 101.668ZM416.801 110.316L415.355 109.091L414.906 109.621V110.316H416.801ZM416.801 130V131.896H418.697V130H416.801ZM406.725 130V63.9143H402.934V130H406.725ZM404.83 65.8099H416.801V62.0188H404.83V65.8099ZM414.906 63.9143V94.2789H418.697V63.9143H414.906ZM416.801 96.1744H417.608V92.3834H416.801V96.1744ZM419.053 95.5058L444.835 65.1412L441.945 62.6875L416.163 93.052L419.053 95.5058ZM443.39 65.8099H458.008V62.0188H443.39V65.8099ZM456.572 62.6769L431.016 92.3316L433.887 94.8064L459.444 65.1518L456.572 62.6769ZM430.904 94.664L456.687 131.095L459.781 128.905L433.999 92.474L430.904 94.664ZM458.234 128.104H443.842V131.896H458.234V128.104ZM445.398 128.917L425.682 100.586L422.57 102.751L442.286 131.083L445.398 128.917ZM422.68 100.443L415.355 109.091L418.248 111.541L425.573 102.893L422.68 100.443ZM414.906 110.316V130H418.697V110.316H414.906ZM416.801 128.104H404.83V131.896H416.801V128.104Z" fill="white" mask="url(#path-1-outside-1_8_3790)"/>
</g>
<defs>
<filter id="filter0_d_8_3790" x="-317.805" y="0.536724" width="901.106" height="314.095" filterUnits="userSpaceOnUse" color-interpolation-filters="sRGB">
<feFlood flood-opacity="0" result="BackgroundImageFix"/>
<feColorMatrix in="SourceAlpha" type="matrix" values="0 0 0 0 0 0 0 0 0 0 0 0 0 0 0 0 0 0 127 0" result="hardAlpha"/>
<feOffset dy="60.5785"/>
<feGaussianBlur stdDeviation="60.5785"/>
<feComposite in2="hardAlpha" operator="out"/>
<feColorMatrix type="matrix" values="0 0 0 0 0 0 0 0 0 0 0 0 0 0 0 0 0 0 0.25 0"/>
<feBlend mode="normal" in2="BackgroundImageFix" result="effect1_dropShadow_8_3790"/>
<feBlend mode="normal" in="SourceGraphic" in2="effect1_dropShadow_8_3790" result="shape"/>
</filter>
</defs>
</svg>
